TEST: encdec-extra
AUTOPKGTEST_TMP directory: /tmp/autopkgtest.sC35DO/autopkgtest_tmp


ffmpeg version 4.2.2-ok2 Copyright (c) 2000-2019 the FFmpeg developers
built with gcc 9 (Ubuntu 9.3.0-ok4)
configuration: --prefix=/usr --extra-version=ok2 --toolchain=hardened --libdir=/usr/lib/riscv64-linux-gnu --incdir=/usr/include/riscv64-linux-gnu --arch=riscv64 --enable-gpl --disable-stripping --enable-avresample --disable-filter=resample --enable-avisynth --enable-gnutls --enable-ladspa --enable-libaom --enable-libass --enable-libbluray --enable-libbs2b --enable-libcaca --enable-libcdio --enable-libcodec2 --enable-libflite --enable-libfontconfig --enable-libfreetype --enable-libfribidi --enable-libgme --enable-libgsm --enable-libjack --enable-libmp3lame --enable-libmysofa --enable-libopenjpeg --enable-libopenmpt --enable-libopus --enable-libpulse --enable-librsvg --enable-librubberband --enable-libshine --enable-libsnappy --enable-libsoxr --enable-libspeex --enable-libssh --enable-libtheora --enable-libtwolame --enable-libvidstab --enable-libvorbis --enable-libvpx --enable-libwavpack --enable-libwebp --enable-libx265 --enable-libxml2 --enable-libxvid --enable-libzmq --enable-libzvbi --enable-lv2 --enable-omx --enable-openal --enable-opencl --enable-opengl --enable-sdl2 --enable-libdc1394 --enable-libdrm --enable-libiec61883 --enable-chromaprint --enable-frei0r --enable-libx264 --enable-shared
libavutil      56. 31.100 / 56. 31.100
libavcodec     58. 54.100 / 58. 54.100
libavformat    58. 29.100 / 58. 29.100
libavdevice    58.  8.100 / 58.  8.100
libavfilter     7. 57.100 /  7. 57.100
libavresample   4.  0.  0 /  4.  0.  0
libswscale      5.  5.100 /  5.  5.100
libswresample   3.  5.100 /  3.  5.100
libpostproc    55.  5.100 / 55.  5.100


muxers:
3g2 3gp a64 ac3 adts adx aiff alaw alsa amr apng aptx aptx_hd asf asf_stream ass ast au avi avm2 avs2 bit caca caf cavsvideo chromaprint codec2 codec2raw crc dash data daud dirac dnxhd dts dv dvd eac3 f32be f32le f4v f64be f64le fbdev ffmetadata fifo fifo_test film_cpk filmstrip fits flac flv framecrc framehash framemd5 g722 g723_1 g726 g726le gif gsm gxf h261 h263 h264 hash hds hevc hls ico ilbc image2 image2pipe ipod ircam ismv ivf jacosub latm lrc m4v matroska md5 microdvd mjpeg mkvtimestamp_v2 mlp mmf mov mp2 mp3 mp4 mpeg mpeg1video mpeg2video mpegts mpjpeg mulaw mxf mxf_d10 mxf_opatom null nut oga ogg ogv oma opengl opus oss psp pulse rawvideo rm roq rso rtp rtp_mpegts rtsp s16be s16le s24be s24le s32be s32le s8 sap sbc scc sdl segment singlejpeg smjpeg smoothstreaming sndio sox spdif spx srt stream_segment sup svcd swf tee truehd tta u16be u16le u24be u24le u32be u32le u8 uncodedframecrc vc1 vc1test vcd vidc video4linux2 vob voc w64 wav webm webm_chunk webm_dash_manifest webp webvtt wtv wv xv yuv4mpegpipe


encoders:
v=a64_multi:a64multi v=a64_multi5:a64multi5 v=alias_pix v=amv v=apng v=asv1 v=asv2 v=av1:libaom-av1 v=avrp v=avui v=ayuv v=bmp v=cinepak v=cljr v=dirac:vc2 v=dnxhd v=dpx v=dvvideo v=ffv1 v=ffvhuff v=fits v=flashsv v=flashsv2 v=flv1:flv v=gif v=h261 v=h263:h263 v=h263:h263_v4l2m2m v=h263p v=h264:libx264 v=h264:libx264rgb v=h264:h264_omx v=h264:h264_v4l2m2m v=h264:h264_vaapi v=hap v=hevc:libx265 v=hevc:hevc_v4l2m2m v=hevc:hevc_vaapi v=huffyuv v=jpeg2000:jpeg2000 v=jpeg2000:libopenjpeg v=jpegls v=ljpeg v=magicyuv v=mjpeg:mjpeg v=mjpeg:mjpeg_vaapi v=mpeg1video v=mpeg2video:mpeg2video v=mpeg2video:mpeg2_vaapi v=mpeg4:mpeg4 v=mpeg4:libxvid v=mpeg4:mpeg4_v4l2m2m v=msmpeg4v2 v=msmpeg4v3:msmpeg4 v=msvideo1 v=pam v=pbm v=pcx v=pgm v=pgmyuv v=png v=ppm v=prores:prores v=prores:prores_aw v=prores:prores_ks v=qtrle v=r10k v=r210 v=rawvideo v=roq:roqvideo v=rv10 v=rv20 v=sgi v=snow v=sunrast v=svq1 v=targa v=theora:libtheora v=tiff v=utvideo v=v210 v=v308 v=v408 v=v410 v=vp8:libvpx v=vp8:vp8_v4l2m2m v=vp8:vp8_vaapi v=vp9:libvpx-vp9 v=vp9:vp9_vaapi v=webp:libwebp_anim v=webp:libwebp v=wmv1 v=wmv2 v=wrapped_avframe v=xbm v=xface v=xwd v=y41p v=yuv4 v=zlib v=zmbv a=aac a=ac3:ac3 a=ac3:ac3_fixed a=adpcm_adx a=adpcm_g722:g722 a=adpcm_g726:g726 a=adpcm_g726le:g726le a=adpcm_ima_qt a=adpcm_ima_wav a=adpcm_ms a=adpcm_swf a=adpcm_yamaha a=alac a=amr_nb:libopencore_amrnb a=amr_wb:libvo_amrwbenc a=aptx a=aptx_hd a=codec2:libcodec2 a=comfortnoise a=dts:dca a=eac3 a=flac a=g723_1 a=gsm:libgsm a=gsm_ms:libgsm_ms a=mlp a=mp2:mp2 a=mp2:mp2fixed a=mp2:libtwolame a=mp3:libmp3lame a=mp3:libshine a=nellymoser a=opus:opus a=opus:libopus a=pcm_alaw a=pcm_dvd a=pcm_f32be a=pcm_f32le a=pcm_f64be a=pcm_f64le a=pcm_mulaw a=pcm_s16be a=pcm_s16be_planar a=pcm_s16le a=pcm_s16le_planar a=pcm_s24be a=pcm_s24daud a=pcm_s24le a=pcm_s24le_planar a=pcm_s32be a=pcm_s32le a=pcm_s32le_planar a=pcm_s64be a=pcm_s64le a=pcm_s8 a=pcm_s8_planar a=pcm_u16be a=pcm_u16le a=pcm_u24be a=pcm_u24le a=pcm_u32be a=pcm_u32le a=pcm_u8 a=pcm_vidc a=ra_144:real_144 a=roq_dpcm a=s302m a=sbc a=sonic a=sonicls a=speex:libspeex a=truehd a=tta a=vorbis:vorbis a=vorbis:libvorbis a=wavpack:wavpack a=wavpack:libwavpack a=wmav1 a=wmav2


23 tests

Test 1:
trying muxer '3g2' with 'a' encoder 'libopencore_amrnb' for codec 'amr_nb'

ffmpeg -f lavfi -i sine=d=0.1 -strict -2 -c:a libopencore_amrnb -f 3g2 /tmp/autopkgtest.sC35DO/autopkgtest_tmp/test/libopencore_amrnb.3g2 -y -hide_banner -nostdin
Input #0, lavfi, from 'sine=d=0.1':
  Duration: N/A, start: 0.000000, bitrate: 705 kb/s
    Stream #0:0: Audio: pcm_s16le, 44100 Hz, mono, s16, 705 kb/s
Stream mapping:
  Stream #0:0 -> #0:0 (pcm_s16le (native) -> amr_nb (libopencore_amrnb))
[libopencore_amrnb @ 0x2ad752fac0] bitrate not supported: use one of 4.75k, 5.15k, 5.90k, 6.70k, 7.40k, 7.95k, 10.20k, 12.20k, using 12.20k
Output #0, 3g2, to '/tmp/autopkgtest.sC35DO/autopkgtest_tmp/test/libopencore_amrnb.3g2':
  Metadata:
    encoder         : Lavf58.29.100
    Stream #0:0: Audio: amr_nb (libopencore_amrnb) (samr / 0x726D6173), 44100 Hz, mono, s16, 128 kb/s
    Metadata:
      encoder         : Lavc58.54.100 libopencore_amrnb
[Parsed_sine_0 @ 0x2ad74e6b60] EOF timestamp not reliable
size=       1kB time=00:00:00.10 bitrate= 120.6kbits/s speed=1.96x    
video:0kB audio:1kB subtitle:0kB other streams:0kB global headers:0kB muxing overhead: 68.973213%


ffmpeg -strict -2 -i /tmp/autopkgtest.sC35DO/autopkgtest_tmp/test/libopencore_amrnb.3g2 -t 1 -c:v rawvideo -c:a pcm_s32le -f nut /dev/null -y -hide_banner -nostdin
Input #0, mov,mp4,m4a,3gp,3g2,mj2, from '/tmp/autopkgtest.sC35DO/autopkgtest_tmp/test/libopencore_amrnb.3g2':
  Metadata:
    major_brand     : 3g2a
    minor_version   : 65536
    compatible_brands: isomiso23g2a
  Duration: 00:00:00.10, start: 0.000000, bitrate: 118 kb/s
    Stream #0:0(und): Audio: amr_nb (samr / 0x726D6173), 8000 Hz, mono, flt, 70 kb/s (default)
    Metadata:
      handler_name    : SoundHandler
Stream mapping:
  Stream #0:0 -> #0:0 (amr_nb (amrnb) -> pcm_s32le (native))
Output #0, nut, to '/dev/null':
  Metadata:
    major_brand     : 3g2a
    minor_version   : 65536
    compatible_brands: isomiso23g2a
    encoder         : Lavf58.29.100
    Stream #0:0: Audio: pcm_s32le (PSD  / 0x20445350), 8000 Hz, mono, s32, 256 kb/s (default)
    Metadata:
      X-Language      : und
      handler_name    : SoundHandler
      encoder         : Lavc58.54.100 pcm_s32le
[nut @ 0x2abd9d4290] Non-monotonous DTS in output stream 0:0; previous: 41, current: 20; changing to 42. This may result in incorrect timestamps in the output file.
size=      18kB time=00:00:00.11 bitrate=1250.3kbits/s speed=2.05x    
video:0kB audio:17kB subtitle:0kB other streams:0kB global headers:0kB muxing overhead: 3.081264%


ffmpeg -strict -2 -i /tmp/autopkgtest.sC35DO/autopkgtest_tmp/test/libopencore_amrnb.3g2 -t 1 -c copy -f 3g2 /tmp/autopkgtest.sC35DO/autopkgtest_tmp/test/libopencore_amrnb.3g2.copy.3g2 -y -hide_banner -nostdin
Input #0, mov,mp4,m4a,3gp,3g2,mj2, from '/tmp/autopkgtest.sC35DO/autopkgtest_tmp/test/libopencore_amrnb.3g2':
  Metadata:
    major_brand     : 3g2a
    minor_version   : 65536
    compatible_brands: isomiso23g2a
  Duration: 00:00:00.10, start: 0.000000, bitrate: 118 kb/s
    Stream #0:0(und): Audio: amr_nb (samr / 0x726D6173), 8000 Hz, mono, flt, 70 kb/s (default)
    Metadata:
      handler_name    : SoundHandler
[3g2 @ 0x2ad8b8d270] track 0: codec frame size is not set
Output #0, 3g2, to '/tmp/autopkgtest.sC35DO/autopkgtest_tmp/test/libopencore_amrnb.3g2.copy.3g2':
  Metadata:
    major_brand     : 3g2a
    minor_version   : 65536
    compatible_brands: isomiso23g2a
    encoder         : Lavf58.29.100
    Stream #0:0(und): Audio: amr_nb (samr / 0x726D6173), 8000 Hz, mono, flt, 70 kb/s (default)
    Metadata:
      handler_name    : SoundHandler
Stream mapping:
  Stream #0:0 -> #0:0 (copy)
size=       1kB time=00:00:00.09 bitrate= 126.3kbits/s speed=8.45x    
video:0kB audio:1kB subtitle:0kB other streams:0kB global headers:0kB muxing overhead: 70.758926%

SUCCESS: correctly created file with format '3g2' and codec 'a=amr_nb:libopencore_amrnb'; streamcopying works


Test 2:
trying muxer '3g2' with 'a' encoder 'libvo_amrwbenc' for codec 'amr_wb'

ffmpeg -f lavfi -i sine=d=0.1 -strict -2 -c:a libvo_amrwbenc -f 3g2 /tmp/autopkgtest.sC35DO/autopkgtest_tmp/test/libvo_amrwbenc.3g2 -y -hide_banner -nostdin
Input #0, lavfi, from 'sine=d=0.1':
  Duration: N/A, start: 0.000000, bitrate: 705 kb/s
    Stream #0:0: Audio: pcm_s16le, 44100 Hz, mono, s16, 705 kb/s
Stream mapping:
  Stream #0:0 -> #0:0 (pcm_s16le (native) -> amr_wb (libvo_amrwbenc))
[libvo_amrwbenc @ 0x2ae43ccac0] bitrate not supported: use one of 6.60k, 8.85k, 12.65k, 14.25k, 15.85k, 18.25k, 19.85k, 23.05k, 23.85k, using 23.85k
Output #0, 3g2, to '/tmp/autopkgtest.sC35DO/autopkgtest_tmp/test/libvo_amrwbenc.3g2':
  Metadata:
    encoder         : Lavf58.29.100
    Stream #0:0: Audio: amr_wb (libvo_amrwbenc) (sawb / 0x62776173), 44100 Hz, mono, s16, 128 kb/s
    Metadata:
      encoder         : Lavc58.54.100 libvo_amrwbenc
[Parsed_sine_0 @ 0x2ae4383b60] EOF timestamp not reliable
size=       1kB time=00:00:00.09 bitrate= 116.0kbits/s speed=1.95x    
video:0kB audio:1kB subtitle:0kB other streams:0kB global headers:0kB muxing overhead: 69.437943%


ffmpeg -strict -2 -i /tmp/autopkgtest.sC35DO/autopkgtest_tmp/test/libvo_amrwbenc.3g2 -t 1 -c:v rawvideo -c:a pcm_s32le -f nut /dev/null -y -hide_banner -nostdin
Input #0, mov,mp4,m4a,3gp,3g2,mj2, from '/tmp/autopkgtest.sC35DO/autopkgtest_tmp/test/libvo_amrwbenc.3g2':
  Metadata:
    major_brand     : 3g2a
    minor_version   : 65536
    compatible_brands: isomiso23g2a
  Duration: 00:00:00.10, start: 0.000000, bitrate: 113 kb/s
    Stream #0:0(und): Audio: amr_wb (sawb / 0x62776173), 16000 Hz, mono, flt, 67 kb/s (default)
    Metadata:
      handler_name    : SoundHandler
Stream mapping:
  Stream #0:0 -> #0:0 (amr_wb (amrwb) -> pcm_s32le (native))
Output #0, nut, to '/dev/null':
  Metadata:
    major_brand     : 3g2a
    minor_version   : 65536
    compatible_brands: isomiso23g2a
    encoder         : Lavf58.29.100
    Stream #0:0: Audio: pcm_s32le (PSD  / 0x20445350), 16000 Hz, mono, s32, 512 kb/s (default)
    Metadata:
      X-Language      : und
      handler_name    : SoundHandler
      encoder         : Lavc58.54.100 pcm_s32le
size=      18kB time=00:00:00.11 bitrate=1285.8kbits/s speed= 1.8x    
video:0kB audio:17kB subtitle:0kB other streams:0kB global headers:0kB muxing overhead: 2.732955%


ffmpeg -strict -2 -i /tmp/autopkgtest.sC35DO/autopkgtest_tmp/test/libvo_amrwbenc.3g2 -t 1 -c copy -f 3g2 /tmp/autopkgtest.sC35DO/autopkgtest_tmp/test/libvo_amrwbenc.3g2.copy.3g2 -y -hide_banner -nostdin
Input #0, mov,mp4,m4a,3gp,3g2,mj2, from '/tmp/autopkgtest.sC35DO/autopkgtest_tmp/test/libvo_amrwbenc.3g2':
  Metadata:
    major_brand     : 3g2a
    minor_version   : 65536
    compatible_brands: isomiso23g2a
  Duration: 00:00:00.10, start: 0.000000, bitrate: 113 kb/s
    Stream #0:0(und): Audio: amr_wb (sawb / 0x62776173), 16000 Hz, mono, flt, 67 kb/s (default)
    Metadata:
      handler_name    : SoundHandler
[3g2 @ 0x2ad2ba1e60] track 0: codec frame size is not set
Output #0, 3g2, to '/tmp/autopkgtest.sC35DO/autopkgtest_tmp/test/libvo_amrwbenc.3g2.copy.3g2':
  Metadata:
    major_brand     : 3g2a
    minor_version   : 65536
    compatible_brands: isomiso23g2a
    encoder         : Lavf58.29.100
    Stream #0:0(und): Audio: amr_wb (sawb / 0x62776173), 16000 Hz, mono, flt, 67 kb/s (default)
    Metadata:
      handler_name    : SoundHandler
Stream mapping:
  Stream #0:0 -> #0:0 (copy)
size=       1kB time=00:00:00.09 bitrate= 127.2kbits/s speed=15.5x    
video:0kB audio:1kB subtitle:0kB other streams:0kB global headers:0kB muxing overhead: 72.248245%

SUCCESS: correctly created file with format '3g2' and codec 'a=amr_wb:libvo_amrwbenc'; streamcopying works


Test 3:
trying muxer '3gp' with 'a' encoder 'libopencore_amrnb' for codec 'amr_nb'

ffmpeg -f lavfi -i sine=d=0.1 -strict -2 -c:a libopencore_amrnb -f 3gp /tmp/autopkgtest.sC35DO/autopkgtest_tmp/test/libopencore_amrnb.3gp -y -hide_banner -nostdin
Input #0, lavfi, from 'sine=d=0.1':
  Duration: N/A, start: 0.000000, bitrate: 705 kb/s
    Stream #0:0: Audio: pcm_s16le, 44100 Hz, mono, s16, 705 kb/s
Stream mapping:
  Stream #0:0 -> #0:0 (pcm_s16le (native) -> amr_nb (libopencore_amrnb))
[libopencore_amrnb @ 0x2ac532fac0] bitrate not supported: use one of 4.75k, 5.15k, 5.90k, 6.70k, 7.40k, 7.95k, 10.20k, 12.20k, using 12.20k
Output #0, 3gp, to '/tmp/autopkgtest.sC35DO/autopkgtest_tmp/test/libopencore_amrnb.3gp':
  Metadata:
    encoder         : Lavf58.29.100
    Stream #0:0: Audio: amr_nb (libopencore_amrnb) (samr / 0x726D6173), 44100 Hz, mono, s16, 128 kb/s
    Metadata:
      encoder         : Lavc58.54.100 libopencore_amrnb
[Parsed_sine_0 @ 0x2ac52e6b60] EOF timestamp not reliable
size=       1kB time=00:00:00.10 bitrate= 120.6kbits/s speed=1.94x    
video:0kB audio:1kB subtitle:0kB other streams:0kB global headers:0kB muxing overhead: 68.973213%


ffmpeg -strict -2 -i /tmp/autopkgtest.sC35DO/autopkgtest_tmp/test/libopencore_amrnb.3gp -t 1 -c:v rawvideo -c:a pcm_s32le -f nut /dev/null -y -hide_banner -nostdin
Input #0, mov,mp4,m4a,3gp,3g2,mj2, from '/tmp/autopkgtest.sC35DO/autopkgtest_tmp/test/libopencore_amrnb.3gp':
  Metadata:
    major_brand     : 3gp4
    minor_version   : 512
    compatible_brands: isomiso23gp4
  Duration: 00:00:00.10, start: 0.000000, bitrate: 118 kb/s
    Stream #0:0(und): Audio: amr_nb (samr / 0x726D6173), 8000 Hz, mono, flt, 70 kb/s (default)
    Metadata:
      handler_name    : SoundHandler
Stream mapping:
  Stream #0:0 -> #0:0 (amr_nb (amrnb) -> pcm_s32le (native))
Output #0, nut, to '/dev/null':
  Metadata:
    major_brand     : 3gp4
    minor_version   : 512
    compatible_brands: isomiso23gp4
    encoder         : Lavf58.29.100
    Stream #0:0: Audio: pcm_s32le (PSD  / 0x20445350), 8000 Hz, mono, s32, 256 kb/s (default)
    Metadata:
      X-Language      : und
      handler_name    : SoundHandler
      encoder         : Lavc58.54.100 pcm_s32le
[nut @ 0x2ad4b77290] Non-monotonous DTS in output stream 0:0; previous: 41, current: 20; changing to 42. This may result in incorrect timestamps in the output file.
size=      18kB time=00:00:00.11 bitrate=1250.2kbits/s speed=   2x    
video:0kB audio:17kB subtitle:0kB other streams:0kB global headers:0kB muxing overhead: 3.069978%


ffmpeg -strict -2 -i /tmp/autopkgtest.sC35DO/autopkgtest_tmp/test/libopencore_amrnb.3gp -t 1 -c copy -f 3gp /tmp/autopkgtest.sC35DO/autopkgtest_tmp/test/libopencore_amrnb.3gp.copy.3gp -y -hide_banner -nostdin
Input #0, mov,mp4,m4a,3gp,3g2,mj2, from '/tmp/autopkgtest.sC35DO/autopkgtest_tmp/test/libopencore_amrnb.3gp':
  Metadata:
    major_brand     : 3gp4
    minor_version   : 512
    compatible_brands: isomiso23gp4
  Duration: 00:00:00.10, start: 0.000000, bitrate: 118 kb/s
    Stream #0:0(und): Audio: amr_nb (samr / 0x726D6173), 8000 Hz, mono, flt, 70 kb/s (default)
    Metadata:
      handler_name    : SoundHandler
[3gp @ 0x2aed744270] track 0: codec frame size is not set
Output #0, 3gp, to '/tmp/autopkgtest.sC35DO/autopkgtest_tmp/test/libopencore_amrnb.3gp.copy.3gp':
  Metadata:
    major_brand     : 3gp4
    minor_version   : 512
    compatible_brands: isomiso23gp4
    encoder         : Lavf58.29.100
    Stream #0:0(und): Audio: amr_nb (samr / 0x726D6173), 8000 Hz, mono, flt, 70 kb/s (default)
    Metadata:
      handler_name    : SoundHandler
Stream mapping:
  Stream #0:0 -> #0:0 (copy)
size=       1kB time=00:00:00.09 bitrate= 126.3kbits/s speed=15.6x    
video:0kB audio:1kB subtitle:0kB other streams:0kB global headers:0kB muxing overhead: 70.758926%

SUCCESS: correctly created file with format '3gp' and codec 'a=amr_nb:libopencore_amrnb'; streamcopying works


Test 4:
trying muxer '3gp' with 'a' encoder 'libvo_amrwbenc' for codec 'amr_wb'

ffmpeg -f lavfi -i sine=d=0.1 -strict -2 -c:a libvo_amrwbenc -f 3gp /tmp/autopkgtest.sC35DO/autopkgtest_tmp/test/libvo_amrwbenc.3gp -y -hide_banner -nostdin
Input #0, lavfi, from 'sine=d=0.1':
  Duration: N/A, start: 0.000000, bitrate: 705 kb/s
    Stream #0:0: Audio: pcm_s16le, 44100 Hz, mono, s16, 705 kb/s
Stream mapping:
  Stream #0:0 -> #0:0 (pcm_s16le (native) -> amr_wb (libvo_amrwbenc))
[libvo_amrwbenc @ 0x2b0edc5ac0] bitrate not supported: use one of 6.60k, 8.85k, 12.65k, 14.25k, 15.85k, 18.25k, 19.85k, 23.05k, 23.85k, using 23.85k
Output #0, 3gp, to '/tmp/autopkgtest.sC35DO/autopkgtest_tmp/test/libvo_amrwbenc.3gp':
  Metadata:
    encoder         : Lavf58.29.100
    Stream #0:0: Audio: amr_wb (libvo_amrwbenc) (sawb / 0x62776173), 44100 Hz, mono, s16, 128 kb/s
    Metadata:
      encoder         : Lavc58.54.100 libvo_amrwbenc
[Parsed_sine_0 @ 0x2b0ed7cb60] EOF timestamp not reliable
size=       1kB time=00:00:00.09 bitrate= 116.0kbits/s speed=1.86x    
video:0kB audio:1kB subtitle:0kB other streams:0kB global headers:0kB muxing overhead: 69.437943%


ffmpeg -strict -2 -i /tmp/autopkgtest.sC35DO/autopkgtest_tmp/test/libvo_amrwbenc.3gp -t 1 -c:v rawvideo -c:a pcm_s32le -f nut /dev/null -y -hide_banner -nostdin
Input #0, mov,mp4,m4a,3gp,3g2,mj2, from '/tmp/autopkgtest.sC35DO/autopkgtest_tmp/test/libvo_amrwbenc.3gp':
  Metadata:
    major_brand     : 3gp4
    minor_version   : 512
    compatible_brands: isomiso23gp4
  Duration: 00:00:00.10, start: 0.000000, bitrate: 113 kb/s
    Stream #0:0(und): Audio: amr_wb (sawb / 0x62776173), 16000 Hz, mono, flt, 67 kb/s (default)
    Metadata:
      handler_name    : SoundHandler
Stream mapping:
  Stream #0:0 -> #0:0 (amr_wb (amrwb) -> pcm_s32le (native))
Output #0, nut, to '/dev/null':
  Metadata:
    major_brand     : 3gp4
    minor_version   : 512
    compatible_brands: isomiso23gp4
    encoder         : Lavf58.29.100
    Stream #0:0: Audio: pcm_s32le (PSD  / 0x20445350), 16000 Hz, mono, s32, 512 kb/s (default)
    Metadata:
      X-Language      : und
      handler_name    : SoundHandler
      encoder         : Lavc58.54.100 pcm_s32le
size=      18kB time=00:00:00.11 bitrate=1285.6kbits/s speed=1.97x    
video:0kB audio:17kB subtitle:0kB other streams:0kB global headers:0kB muxing overhead: 2.721591%


ffmpeg -strict -2 -i /tmp/autopkgtest.sC35DO/autopkgtest_tmp/test/libvo_amrwbenc.3gp -t 1 -c copy -f 3gp /tmp/autopkgtest.sC35DO/autopkgtest_tmp/test/libvo_amrwbenc.3gp.copy.3gp -y -hide_banner -nostdin
Input #0, mov,mp4,m4a,3gp,3g2,mj2, from '/tmp/autopkgtest.sC35DO/autopkgtest_tmp/test/libvo_amrwbenc.3gp':
  Metadata:
    major_brand     : 3gp4
    minor_version   : 512
    compatible_brands: isomiso23gp4
  Duration: 00:00:00.10, start: 0.000000, bitrate: 113 kb/s
    Stream #0:0(und): Audio: amr_wb (sawb / 0x62776173), 16000 Hz, mono, flt, 67 kb/s (default)
    Metadata:
      handler_name    : SoundHandler
[3gp @ 0x2accd09e60] track 0: codec frame size is not set
Output #0, 3gp, to '/tmp/autopkgtest.sC35DO/autopkgtest_tmp/test/libvo_amrwbenc.3gp.copy.3gp':
  Metadata:
    major_brand     : 3gp4
    minor_version   : 512
    compatible_brands: isomiso23gp4
    encoder         : Lavf58.29.100
    Stream #0:0(und): Audio: amr_wb (sawb / 0x62776173), 16000 Hz, mono, flt, 67 kb/s (default)
    Metadata:
      handler_name    : SoundHandler
Stream mapping:
  Stream #0:0 -> #0:0 (copy)
size=       1kB time=00:00:00.09 bitrate= 127.2kbits/s speed=15.5x    
video:0kB audio:1kB subtitle:0kB other streams:0kB global headers:0kB muxing overhead: 72.248245%

SUCCESS: correctly created file with format '3gp' and codec 'a=amr_wb:libvo_amrwbenc'; streamcopying works


Test 5:
trying muxer 'amr' with 'a' encoder 'libopencore_amrnb' for codec 'amr_nb'

ffmpeg -f lavfi -i sine=d=0.1 -strict -2 -c:a libopencore_amrnb -f amr /tmp/autopkgtest.sC35DO/autopkgtest_tmp/test/libopencore_amrnb.amr -y -hide_banner -nostdin
Input #0, lavfi, from 'sine=d=0.1':
  Duration: N/A, start: 0.000000, bitrate: 705 kb/s
    Stream #0:0: Audio: pcm_s16le, 44100 Hz, mono, s16, 705 kb/s
Stream mapping:
  Stream #0:0 -> #0:0 (pcm_s16le (native) -> amr_nb (libopencore_amrnb))
[libopencore_amrnb @ 0x2af034eac0] bitrate not supported: use one of 4.75k, 5.15k, 5.90k, 6.70k, 7.40k, 7.95k, 10.20k, 12.20k, using 12.20k
Output #0, amr, to '/tmp/autopkgtest.sC35DO/autopkgtest_tmp/test/libopencore_amrnb.amr':
  Metadata:
    encoder         : Lavf58.29.100
    Stream #0:0: Audio: amr_nb (libopencore_amrnb), 44100 Hz, mono, s16, 128 kb/s
    Metadata:
      encoder         : Lavc58.54.100 libopencore_amrnb
[Parsed_sine_0 @ 0x2af0305b60] EOF timestamp not reliable
size=       1kB time=00:00:00.10 bitrate=  71.8kbits/s speed=2.33x    
video:0kB audio:1kB subtitle:0kB other streams:0kB global headers:0kB muxing overhead: 0.669643%


ffmpeg -strict -2 -i /tmp/autopkgtest.sC35DO/autopkgtest_tmp/test/libopencore_amrnb.amr -t 1 -c:v rawvideo -c:a pcm_s32le -f nut /dev/null -y -hide_banner -nostdin
[amr @ 0x2ad42b6230] Estimating duration from bitrate, this may be inaccurate
Input #0, amr, from '/tmp/autopkgtest.sC35DO/autopkgtest_tmp/test/libopencore_amrnb.amr':
  Duration: 00:00:00.58, bitrate: 12 kb/s
    Stream #0:0: Audio: amr_nb (samr / 0x726D6173), 8000 Hz, mono, flt
Stream mapping:
  Stream #0:0 -> #0:0 (amr_nb (amrnb) -> pcm_s32le (native))
Output #0, nut, to '/dev/null':
  Metadata:
    encoder         : Lavf58.29.100
    Stream #0:0: Audio: pcm_s32le (PSD  / 0x20445350), 8000 Hz, mono, s32, 256 kb/s
    Metadata:
      encoder         : Lavc58.54.100 pcm_s32le
size=      18kB time=00:00:00.56 bitrate= 262.0kbits/s speed=9.97x    
video:0kB audio:18kB subtitle:0kB other streams:0kB global headers:0kB muxing overhead: 2.327009%


ffmpeg -strict -2 -i /tmp/autopkgtest.sC35DO/autopkgtest_tmp/test/libopencore_amrnb.amr -t 1 -c copy -f amr /tmp/autopkgtest.sC35DO/autopkgtest_tmp/test/libopencore_amrnb.amr.copy.amr -y -hide_banner -nostdin
[amr @ 0x2af9298210] Estimating duration from bitrate, this may be inaccurate
Input #0, amr, from '/tmp/autopkgtest.sC35DO/autopkgtest_tmp/test/libopencore_amrnb.amr':
  Duration: 00:00:00.58, bitrate: 12 kb/s
    Stream #0:0: Audio: amr_nb (samr / 0x726D6173), 8000 Hz, mono, flt
Output #0, amr, to '/tmp/autopkgtest.sC35DO/autopkgtest_tmp/test/libopencore_amrnb.amr.copy.amr':
  Metadata:
    encoder         : Lavf58.29.100
    Stream #0:0: Audio: amr_nb (samr / 0x726D6173), 8000 Hz, mono, flt
Stream mapping:
  Stream #0:0 -> #0:0 (copy)
size=       1kB time=00:00:00.54 bitrate=  13.4kbits/s speed= 191x    
video:0kB audio:1kB subtitle:0kB other streams:0kB global headers:0kB muxing overhead: 0.669643%

SUCCESS: correctly created file with format 'amr' and codec 'a=amr_nb:libopencore_amrnb'; streamcopying works


Test 6:
trying muxer 'amr' with 'a' encoder 'libvo_amrwbenc' for codec 'amr_wb'

ffmpeg -f lavfi -i sine=d=0.1 -strict -2 -c:a libvo_amrwbenc -f amr /tmp/autopkgtest.sC35DO/autopkgtest_tmp/test/libvo_amrwbenc.amr -y -hide_banner -nostdin
Input #0, lavfi, from 'sine=d=0.1':
  Duration: N/A, start: 0.000000, bitrate: 705 kb/s
    Stream #0:0: Audio: pcm_s16le, 44100 Hz, mono, s16, 705 kb/s
Stream mapping:
  Stream #0:0 -> #0:0 (pcm_s16le (native) -> amr_wb (libvo_amrwbenc))
[libvo_amrwbenc @ 0x2af9f76ac0] bitrate not supported: use one of 6.60k, 8.85k, 12.65k, 14.25k, 15.85k, 18.25k, 19.85k, 23.05k, 23.85k, using 23.85k
Output #0, amr, to '/tmp/autopkgtest.sC35DO/autopkgtest_tmp/test/libvo_amrwbenc.amr':
  Metadata:
    encoder         : Lavf58.29.100
    Stream #0:0: Audio: amr_wb (libvo_amrwbenc), 44100 Hz, mono, s16, 128 kb/s
    Metadata:
      encoder         : Lavc58.54.100 libvo_amrwbenc
[Parsed_sine_0 @ 0x2af9f2db60] EOF timestamp not reliable
size=       1kB time=00:00:00.09 bitrate=  69.2kbits/s speed=1.81x    
video:0kB audio:1kB subtitle:0kB other streams:0kB global headers:0kB muxing overhead: 1.053864%


ffmpeg -strict -2 -i /tmp/autopkgtest.sC35DO/autopkgtest_tmp/test/libvo_amrwbenc.amr -t 1 -c:v rawvideo -c:a pcm_s32le -f nut /dev/null -y -hide_banner -nostdin
[amr @ 0x2ae0c2f230] Estimating duration from bitrate, this may be inaccurate
Input #0, amr, from '/tmp/autopkgtest.sC35DO/autopkgtest_tmp/test/libvo_amrwbenc.amr':
  Duration: 00:00:00.29, bitrate: 23 kb/s
    Stream #0:0: Audio: amr_wb (sawb / 0x62776173), 16000 Hz, mono, flt
Stream mapping:
  Stream #0:0 -> #0:0 (amr_wb (amrwb) -> pcm_s32le (native))
Output #0, nut, to '/dev/null':
  Metadata:
    encoder         : Lavf58.29.100
    Stream #0:0: Audio: pcm_s32le (PSD  / 0x20445350), 16000 Hz, mono, s32, 512 kb/s
    Metadata:
      encoder         : Lavc58.54.100 pcm_s32le
size=      18kB time=00:00:00.28 bitrate= 521.9kbits/s speed=4.48x    
video:0kB audio:18kB subtitle:0kB other streams:0kB global headers:0kB muxing overhead: 1.936384%


ffmpeg -strict -2 -i /tmp/autopkgtest.sC35DO/autopkgtest_tmp/test/libvo_amrwbenc.amr -t 1 -c copy -f amr /tmp/autopkgtest.sC35DO/autopkgtest_tmp/test/libvo_amrwbenc.amr.copy.amr -y -hide_banner -nostdin
[amr @ 0x2b15eef210] Estimating duration from bitrate, this may be inaccurate
Input #0, amr, from '/tmp/autopkgtest.sC35DO/autopkgtest_tmp/test/libvo_amrwbenc.amr':
  Duration: 00:00:00.29, bitrate: 23 kb/s
    Stream #0:0: Audio: amr_wb (sawb / 0x62776173), 16000 Hz, mono, flt
Output #0, amr, to '/tmp/autopkgtest.sC35DO/autopkgtest_tmp/test/libvo_amrwbenc.amr.copy.amr':
  Metadata:
    encoder         : Lavf58.29.100
    Stream #0:0: Audio: amr_wb (sawb / 0x62776173), 16000 Hz, mono, flt
Stream mapping:
  Stream #0:0 -> #0:0 (copy)
size=       1kB time=00:00:00.26 bitrate=  26.6kbits/s speed=93.9x    
video:0kB audio:1kB subtitle:0kB other streams:0kB global headers:0kB muxing overhead: 1.053864%

SUCCESS: correctly created file with format 'amr' and codec 'a=amr_wb:libvo_amrwbenc'; streamcopying works


Test 7:
trying muxer 'asf' with 'a' encoder 'libopencore_amrnb' for codec 'amr_nb'

ffmpeg -f lavfi -i sine=d=0.1 -strict -2 -c:a libopencore_amrnb -f asf /tmp/autopkgtest.sC35DO/autopkgtest_tmp/test/libopencore_amrnb.asf -y -hide_banner -nostdin
Input #0, lavfi, from 'sine=d=0.1':
  Duration: N/A, start: 0.000000, bitrate: 705 kb/s
    Stream #0:0: Audio: pcm_s16le, 44100 Hz, mono, s16, 705 kb/s
Stream mapping:
  Stream #0:0 -> #0:0 (pcm_s16le (native) -> amr_nb (libopencore_amrnb))
[libopencore_amrnb @ 0x2b09f3cac0] bitrate not supported: use one of 4.75k, 5.15k, 5.90k, 6.70k, 7.40k, 7.95k, 10.20k, 12.20k, using 12.20k
Output #0, asf, to '/tmp/autopkgtest.sC35DO/autopkgtest_tmp/test/libopencore_amrnb.asf':
  Metadata:
    WM/EncodingSettings: Lavf58.29.100
    Stream #0:0: Audio: amr_nb (libopencore_amrnb) (8[0][0][0] / 0x0038), 44100 Hz, mono, s16, 128 kb/s
    Metadata:
      encoder         : Lavc58.54.100 libopencore_amrnb
[Parsed_sine_0 @ 0x2b09ef3b60] EOF timestamp not reliable
size=       4kB time=00:00:00.10 bitrate= 293.2kbits/s speed=2.11x    
video:0kB audio:1kB subtitle:0kB other streams:0kB global headers:0kB muxing overhead: 313.169647%


ffmpeg -strict -2 -i /tmp/autopkgtest.sC35DO/autopkgtest_tmp/test/libopencore_amrnb.asf -t 1 -c:v rawvideo -c:a pcm_s32le -f nut /dev/null -y -hide_banner -nostdin
Input #0, asf, from '/tmp/autopkgtest.sC35DO/autopkgtest_tmp/test/libopencore_amrnb.asf':
  Metadata:
    encoder         : Lavf58.29.100
  Duration: 00:00:00.10, start: 0.000000, bitrate: 293 kb/s
    Stream #0:0: Audio: amr_nb (8[0][0][0] / 0x0038), 44100 Hz, mono, flt, 128 kb/s
Stream mapping:
  Stream #0:0 -> #0:0 (amr_nb (amrnb) -> pcm_s32le (native))
Output #0, nut, to '/dev/null':
  Metadata:
    encoder         : Lavf58.29.100
    Stream #0:0: Audio: pcm_s32le (PSD  / 0x20445350), 44100 Hz, mono, s32, 1411 kb/s
    Metadata:
      encoder         : Lavc58.54.100 pcm_s32le
size=      18kB time=00:00:00.10 bitrate=1445.9kbits/s speed=1.97x    
video:0kB audio:18kB subtitle:0kB other streams:0kB global headers:0kB muxing overhead: 2.343750%


ffmpeg -strict -2 -i /tmp/autopkgtest.sC35DO/autopkgtest_tmp/test/libopencore_amrnb.asf -t 1 -c copy -f asf /tmp/autopkgtest.sC35DO/autopkgtest_tmp/test/libopencore_amrnb.asf.copy.asf -y -hide_banner -nostdin
Input #0, asf, from '/tmp/autopkgtest.sC35DO/autopkgtest_tmp/test/libopencore_amrnb.asf':
  Metadata:
    encoder         : Lavf58.29.100
  Duration: 00:00:00.10, start: 0.000000, bitrate: 293 kb/s
    Stream #0:0: Audio: amr_nb (8[0][0][0] / 0x0038), 44100 Hz, mono, flt, 128 kb/s
Output #0, asf, to '/tmp/autopkgtest.sC35DO/autopkgtest_tmp/test/libopencore_amrnb.asf.copy.asf':
  Metadata:
    WM/EncodingSettings: Lavf58.29.100
    Stream #0:0: Audio: amr_nb (8[0][0][0] / 0x0038), 44100 Hz, mono, flt, 128 kb/s
Stream mapping:
  Stream #0:0 -> #0:0 (copy)
size=       4kB time=00:00:00.09 bitrate= 302.2kbits/s speed=23.6x    
video:0kB audio:1kB subtitle:0kB other streams:0kB global headers:0kB muxing overhead: 313.169647%

SUCCESS: correctly created file with format 'asf' and codec 'a=amr_nb:libopencore_amrnb'; streamcopying works


Test 8:
trying muxer 'asf' with 'a' encoder 'libvo_amrwbenc' for codec 'amr_wb'

ffmpeg -f lavfi -i sine=d=0.1 -strict -2 -c:a libvo_amrwbenc -f asf /tmp/autopkgtest.sC35DO/autopkgtest_tmp/test/libvo_amrwbenc.asf -y -hide_banner -nostdin
Input #0, lavfi, from 'sine=d=0.1':
  Duration: N/A, start: 0.000000, bitrate: 705 kb/s
    Stream #0:0: Audio: pcm_s16le, 44100 Hz, mono, s16, 705 kb/s
Stream mapping:
  Stream #0:0 -> #0:0 (pcm_s16le (native) -> amr_wb (libvo_amrwbenc))
[libvo_amrwbenc @ 0x2ae5a1eac0] bitrate not supported: use one of 6.60k, 8.85k, 12.65k, 14.25k, 15.85k, 18.25k, 19.85k, 23.05k, 23.85k, using 23.85k
Output #0, asf, to '/tmp/autopkgtest.sC35DO/autopkgtest_tmp/test/libvo_amrwbenc.asf':
  Metadata:
    WM/EncodingSettings: Lavf58.29.100
    Stream #0:0: Audio: amr_wb (libvo_amrwbenc) (X[0][0][0] / 0x0058), 44100 Hz, mono, s16, 128 kb/s
    Metadata:
      encoder         : Lavc58.54.100 libvo_amrwbenc
[Parsed_sine_0 @ 0x2ae59d5b60] EOF timestamp not reliable
size=       4kB time=00:00:00.10 bitrate= 293.2kbits/s speed=1.96x    
video:0kB audio:1kB subtitle:0kB other streams:0kB global headers:0kB muxing overhead: 333.489471%


ffmpeg -strict -2 -i /tmp/autopkgtest.sC35DO/autopkgtest_tmp/test/libvo_amrwbenc.asf -t 1 -c:v rawvideo -c:a pcm_s32le -f nut /dev/null -y -hide_banner -nostdin
Input #0, asf, from '/tmp/autopkgtest.sC35DO/autopkgtest_tmp/test/libvo_amrwbenc.asf':
  Metadata:
    encoder         : Lavf58.29.100
  Duration: 00:00:00.10, start: 0.000000, bitrate: 290 kb/s
    Stream #0:0: Audio: amr_wb (X[0][0][0] / 0x0058), 44100 Hz, mono, flt, 128 kb/s
Stream mapping:
  Stream #0:0 -> #0:0 (amr_wb (amrwb) -> pcm_s32le (native))
Output #0, nut, to '/dev/null':
  Metadata:
    encoder         : Lavf58.29.100
    Stream #0:0: Audio: pcm_s32le (PSD  / 0x20445350), 44100 Hz, mono, s32, 1411 kb/s
    Metadata:
      encoder         : Lavc58.54.100 pcm_s32le
size=      18kB time=00:00:00.10 bitrate=1436.5kbits/s speed=1.66x    
video:0kB audio:18kB subtitle:0kB other streams:0kB global headers:0kB muxing overhead: 1.953125%


ffmpeg -strict -2 -i /tmp/autopkgtest.sC35DO/autopkgtest_tmp/test/libvo_amrwbenc.asf -t 1 -c copy -f asf /tmp/autopkgtest.sC35DO/autopkgtest_tmp/test/libvo_amrwbenc.asf.copy.asf -y -hide_banner -nostdin
Input #0, asf, from '/tmp/autopkgtest.sC35DO/autopkgtest_tmp/test/libvo_amrwbenc.asf':
  Metadata:
    encoder         : Lavf58.29.100
  Duration: 00:00:00.10, start: 0.000000, bitrate: 290 kb/s
    Stream #0:0: Audio: amr_wb (X[0][0][0] / 0x0058), 44100 Hz, mono, flt, 128 kb/s
Output #0, asf, to '/tmp/autopkgtest.sC35DO/autopkgtest_tmp/test/libvo_amrwbenc.asf.copy.asf':
  Metadata:
    WM/EncodingSettings: Lavf58.29.100
    Stream #0:0: Audio: amr_wb (X[0][0][0] / 0x0058), 44100 Hz, mono, flt, 128 kb/s
Stream mapping:
  Stream #0:0 -> #0:0 (copy)
size=       4kB time=00:00:00.09 bitrate= 311.7kbits/s speed=24.3x    
video:0kB audio:1kB subtitle:0kB other streams:0kB global headers:0kB muxing overhead: 333.489471%

SUCCESS: correctly created file with format 'asf' and codec 'a=amr_wb:libvo_amrwbenc'; streamcopying works


Test 9:
trying muxer 'avi' with 'a' encoder 'libopencore_amrnb' for codec 'amr_nb'

ffmpeg -f lavfi -i sine=d=0.1 -strict -2 -c:a libopencore_amrnb -f avi /tmp/autopkgtest.sC35DO/autopkgtest_tmp/test/libopencore_amrnb.avi -y -hide_banner -nostdin
Input #0, lavfi, from 'sine=d=0.1':
  Duration: N/A, start: 0.000000, bitrate: 705 kb/s
    Stream #0:0: Audio: pcm_s16le, 44100 Hz, mono, s16, 705 kb/s
Stream mapping:
  Stream #0:0 -> #0:0 (pcm_s16le (native) -> amr_nb (libopencore_amrnb))
[libopencore_amrnb @ 0x2aedf6aac0] bitrate not supported: use one of 4.75k, 5.15k, 5.90k, 6.70k, 7.40k, 7.95k, 10.20k, 12.20k, using 12.20k
Output #0, avi, to '/tmp/autopkgtest.sC35DO/autopkgtest_tmp/test/libopencore_amrnb.avi':
  Metadata:
    ISFT            : Lavf58.29.100
    Stream #0:0: Audio: amr_nb (libopencore_amrnb) (8[0][0][0] / 0x0038), 44100 Hz, mono, s16, 128 kb/s
    Metadata:
      encoder         : Lavc58.54.100 libopencore_amrnb
[Parsed_sine_0 @ 0x2aedf21b60] EOF timestamp not reliable
size=       7kB time=00:00:00.10 bitrate= 569.5kbits/s speed=1.87x    
video:0kB audio:1kB subtitle:0kB other streams:0kB global headers:0kB muxing overhead: 707.142883%


ffmpeg -strict -2 -i /tmp/autopkgtest.sC35DO/autopkgtest_tmp/test/libopencore_amrnb.avi -t 1 -c:v rawvideo -c:a pcm_s32le -f nut /dev/null -y -hide_banner -nostdin
Input #0, avi, from '/tmp/autopkgtest.sC35DO/autopkgtest_tmp/test/libopencore_amrnb.avi':
  Metadata:
    encoder         : Lavf58.29.100
  Duration: 00:00:00.10, start: 0.000000, bitrate: 569 kb/s
    Stream #0:0: Audio: amr_nb (8[0][0][0] / 0x0038), 44100 Hz, mono, flt, 128 kb/s
Stream mapping:
  Stream #0:0 -> #0:0 (amr_nb (amrnb) -> pcm_s32le (native))
Output #0, nut, to '/dev/null':
  Metadata:
    encoder         : Lavf58.29.100
    Stream #0:0: Audio: pcm_s32le (PSD  / 0x20445350), 44100 Hz, mono, s32, 1411 kb/s
    Metadata:
      encoder         : Lavc58.54.100 pcm_s32le
size=      12kB time=00:00:00.99 bitrate=  96.0kbits/s speed=19.7x    
video:0kB audio:11kB subtitle:0kB other streams:0kB global headers:0kB muxing overhead: 3.220486%


ffmpeg -strict -2 -i /tmp/autopkgtest.sC35DO/autopkgtest_tmp/test/libopencore_amrnb.avi -t 1 -c copy -f avi /tmp/autopkgtest.sC35DO/autopkgtest_tmp/test/libopencore_amrnb.avi.copy.avi -y -hide_banner -nostdin
Input #0, avi, from '/tmp/autopkgtest.sC35DO/autopkgtest_tmp/test/libopencore_amrnb.avi':
  Metadata:
    encoder         : Lavf58.29.100
  Duration: 00:00:00.10, start: 0.000000, bitrate: 569 kb/s
    Stream #0:0: Audio: amr_nb (8[0][0][0] / 0x0038), 44100 Hz, mono, flt, 128 kb/s
Output #0, avi, to '/tmp/autopkgtest.sC35DO/autopkgtest_tmp/test/libopencore_amrnb.avi.copy.avi':
  Metadata:
    ISFT            : Lavf58.29.100
    Stream #0:0: Audio: amr_nb (8[0][0][0] / 0x0038), 44100 Hz, mono, flt, 128 kb/s
Stream mapping:
  Stream #0:0 -> #0:0 (copy)
size=       7kB time=00:00:00.98 bitrate=  54.1kbits/s speed= 226x    
video:0kB audio:1kB subtitle:0kB other streams:0kB global headers:0kB muxing overhead: 1058.333374%

SUCCESS: correctly created file with format 'avi' and codec 'a=amr_nb:libopencore_amrnb'; streamcopying works


Test 10:
trying muxer 'avi' with 'a' encoder 'libvo_amrwbenc' for codec 'amr_wb'

ffmpeg -f lavfi -i sine=d=0.1 -strict -2 -c:a libvo_amrwbenc -f avi /tmp/autopkgtest.sC35DO/autopkgtest_tmp/test/libvo_amrwbenc.avi -y -hide_banner -nostdin
Input #0, lavfi, from 'sine=d=0.1':
  Duration: N/A, start: 0.000000, bitrate: 705 kb/s
    Stream #0:0: Audio: pcm_s16le, 44100 Hz, mono, s16, 705 kb/s
Stream mapping:
  Stream #0:0 -> #0:0 (pcm_s16le (native) -> amr_wb (libvo_amrwbenc))
[libvo_amrwbenc @ 0x2b05451ac0] bitrate not supported: use one of 6.60k, 8.85k, 12.65k, 14.25k, 15.85k, 18.25k, 19.85k, 23.05k, 23.85k, using 23.85k
Output #0, avi, to '/tmp/autopkgtest.sC35DO/autopkgtest_tmp/test/libvo_amrwbenc.avi':
  Metadata:
    ISFT            : Lavf58.29.100
    Stream #0:0: Audio: amr_wb (libvo_amrwbenc) (X[0][0][0] / 0x0058), 44100 Hz, mono, s16, 128 kb/s
    Metadata:
      encoder         : Lavc58.54.100 libvo_amrwbenc
[Parsed_sine_0 @ 0x2b05408b60] EOF timestamp not reliable
size=       7kB time=00:00:00.10 bitrate= 540.9kbits/s speed=1.81x    
video:0kB audio:1kB subtitle:0kB other streams:0kB global headers:0kB muxing overhead: 704.215454%


ffmpeg -strict -2 -i /tmp/autopkgtest.sC35DO/autopkgtest_tmp/test/libvo_amrwbenc.avi -t 1 -c:v rawvideo -c:a pcm_s32le -f nut /dev/null -y -hide_banner -nostdin
Input #0, avi, from '/tmp/autopkgtest.sC35DO/autopkgtest_tmp/test/libvo_amrwbenc.avi':
  Metadata:
    encoder         : Lavf58.29.100
  Duration: 00:00:00.10, start: 0.000000, bitrate: 540 kb/s
    Stream #0:0: Audio: amr_wb (X[0][0][0] / 0x0058), 44100 Hz, mono, flt, 128 kb/s
Stream mapping:
  Stream #0:0 -> #0:0 (amr_wb (amrwb) -> pcm_s32le (native))
Output #0, nut, to '/dev/null':
  Metadata:
    encoder         : Lavf58.29.100
    Stream #0:0: Audio: pcm_s32le (PSD  / 0x20445350), 44100 Hz, mono, s32, 1411 kb/s
    Metadata:
      encoder         : Lavc58.54.100 pcm_s32le
size=       7kB time=00:00:00.90 bitrate=  59.2kbits/s speed=19.5x    
video:0kB audio:6kB subtitle:0kB other streams:0kB global headers:0kB muxing overhead: 4.843750%


ffmpeg -strict -2 -i /tmp/autopkgtest.sC35DO/autopkgtest_tmp/test/libvo_amrwbenc.avi -t 1 -c copy -f avi /tmp/autopkgtest.sC35DO/autopkgtest_tmp/test/libvo_amrwbenc.avi.copy.avi -y -hide_banner -nostdin
Input #0, avi, from '/tmp/autopkgtest.sC35DO/autopkgtest_tmp/test/libvo_amrwbenc.avi':
  Metadata:
    encoder         : Lavf58.29.100
  Duration: 00:00:00.10, start: 0.000000, bitrate: 540 kb/s
    Stream #0:0: Audio: amr_wb (X[0][0][0] / 0x0058), 44100 Hz, mono, flt, 128 kb/s
Output #0, avi, to '/tmp/autopkgtest.sC35DO/autopkgtest_tmp/test/libvo_amrwbenc.avi.copy.avi':
  Metadata:
    ISFT            : Lavf58.29.100
    Stream #0:0: Audio: amr_wb (X[0][0][0] / 0x0058), 44100 Hz, mono, flt, 128 kb/s
Stream mapping:
  Stream #0:0 -> #0:0 (copy)
size=       6kB time=00:00:00.89 bitrate=  54.2kbits/s speed= 219x    
video:0kB audio:0kB subtitle:0kB other streams:0kB global headers:0kB muxing overhead: 1898.032837%

SUCCESS: correctly created file with format 'avi' and codec 'a=amr_wb:libvo_amrwbenc'; streamcopying works


Test 11:
trying muxer 'caf' with 'a' encoder 'libopencore_amrnb' for codec 'amr_nb'

ffmpeg -f lavfi -i sine=d=0.1 -strict -2 -c:a libopencore_amrnb -f caf /tmp/autopkgtest.sC35DO/autopkgtest_tmp/test/libopencore_amrnb.caf -y -hide_banner -nostdin
Input #0, lavfi, from 'sine=d=0.1':
  Duration: N/A, start: 0.000000, bitrate: 705 kb/s
    Stream #0:0: Audio: pcm_s16le, 44100 Hz, mono, s16, 705 kb/s
Stream mapping:
  Stream #0:0 -> #0:0 (pcm_s16le (native) -> amr_nb (libopencore_amrnb))
[libopencore_amrnb @ 0x2adcd33ac0] bitrate not supported: use one of 4.75k, 5.15k, 5.90k, 6.70k, 7.40k, 7.95k, 10.20k, 12.20k, using 12.20k
Output #0, caf, to '/tmp/autopkgtest.sC35DO/autopkgtest_tmp/test/libopencore_amrnb.caf':
  Metadata:
    encoder         : Lavf58.29.100
    Stream #0:0: Audio: amr_nb (libopencore_amrnb) (samr / 0x726D6173), 44100 Hz, mono, s16, 128 kb/s
    Metadata:
      encoder         : Lavc58.54.100 libopencore_amrnb
[Parsed_sine_0 @ 0x2adcceab60] EOF timestamp not reliable
size=       1kB time=00:00:00.10 bitrate=  90.1kbits/s speed=2.24x    
video:0kB audio:1kB subtitle:0kB other streams:0kB global headers:0kB muxing overhead: 26.227678%


ffmpeg -strict -2 -i /tmp/autopkgtest.sC35DO/autopkgtest_tmp/test/libopencore_amrnb.caf -t 1 -c:v rawvideo -c:a pcm_s32le -f nut /dev/null -y -hide_banner -nostdin
Input #0, caf, from '/tmp/autopkgtest.sC35DO/autopkgtest_tmp/test/libopencore_amrnb.caf':
  Metadata:
    encoder         : Lavf58.29.100
  Duration: 00:00:00.10, start: 0.000000, bitrate: 89 kb/s
    Stream #0:0: Audio: amr_nb (samr / 0x726D6173), 44100 Hz, mono, flt
Stream mapping:
  Stream #0:0 -> #0:0 (amr_nb (amrnb) -> pcm_s32le (native))
Output #0, nut, to '/dev/null':
  Metadata:
    encoder         : Lavf58.29.100
    Stream #0:0: Audio: pcm_s32le (PSD  / 0x20445350), 44100 Hz, mono, s32, 1411 kb/s
    Metadata:
      encoder         : Lavc58.54.100 pcm_s32le
size=      18kB time=00:00:00.10 bitrate=1444.3kbits/s speed=1.94x    
video:0kB audio:18kB subtitle:0kB other streams:0kB global headers:0kB muxing overhead: 2.343750%


ffmpeg -strict -2 -i /tmp/autopkgtest.sC35DO/autopkgtest_tmp/test/libopencore_amrnb.caf -t 1 -c copy -f caf /tmp/autopkgtest.sC35DO/autopkgtest_tmp/test/libopencore_amrnb.caf.copy.caf -y -hide_banner -nostdin
Input #0, caf, from '/tmp/autopkgtest.sC35DO/autopkgtest_tmp/test/libopencore_amrnb.caf':
  Metadata:
    encoder         : Lavf58.29.100
  Duration: 00:00:00.10, start: 0.000000, bitrate: 89 kb/s
    Stream #0:0: Audio: amr_nb (samr / 0x726D6173), 44100 Hz, mono, flt
Output #0, caf, to '/tmp/autopkgtest.sC35DO/autopkgtest_tmp/test/libopencore_amrnb.caf.copy.caf':
  Metadata:
    encoder         : Lavf58.29.100
    Stream #0:0: Audio: amr_nb (samr / 0x726D6173), 44100 Hz, mono, flt
Stream mapping:
  Stream #0:0 -> #0:0 (copy)
size=       1kB time=00:00:00.09 bitrate=  92.4kbits/s speed=13.7x    
video:0kB audio:1kB subtitle:0kB other streams:0kB global headers:0kB muxing overhead: 26.227678%

SUCCESS: correctly created file with format 'caf' and codec 'a=amr_nb:libopencore_amrnb'; streamcopying works


Test 12:
trying muxer 'matroska' with 'a' encoder 'libopencore_amrnb' for codec 'amr_nb'

ffmpeg -f lavfi -i sine=d=0.1 -strict -2 -c:a libopencore_amrnb -f matroska /tmp/autopkgtest.sC35DO/autopkgtest_tmp/test/libopencore_amrnb.matroska -y -hide_banner -nostdin
Input #0, lavfi, from 'sine=d=0.1':
  Duration: N/A, start: 0.000000, bitrate: 705 kb/s
    Stream #0:0: Audio: pcm_s16le, 44100 Hz, mono, s16, 705 kb/s
Stream mapping:
  Stream #0:0 -> #0:0 (pcm_s16le (native) -> amr_nb (libopencore_amrnb))
[libopencore_amrnb @ 0x2b0729d000] bitrate not supported: use one of 4.75k, 5.15k, 5.90k, 6.70k, 7.40k, 7.95k, 10.20k, 12.20k, using 12.20k
Output #0, matroska, to '/tmp/autopkgtest.sC35DO/autopkgtest_tmp/test/libopencore_amrnb.matroska':
  Metadata:
    encoder         : Lavf58.29.100
    Stream #0:0: Audio: amr_nb (libopencore_amrnb) (8[0][0][0] / 0x0038), 44100 Hz, mono, s16, 128 kb/s
    Metadata:
      encoder         : Lavc58.54.100 libopencore_amrnb
[Parsed_sine_0 @ 0x2b07253b60] EOF timestamp not reliable
size=       2kB time=00:00:00.10 bitrate= 138.7kbits/s speed=1.83x    
video:0kB audio:1kB subtitle:0kB other streams:0kB global headers:0kB muxing overhead: 95.424110%


ffmpeg -strict -2 -i /tmp/autopkgtest.sC35DO/autopkgtest_tmp/test/libopencore_amrnb.matroska -t 1 -c:v rawvideo -c:a pcm_s32le -f nut /dev/null -y -hide_banner -nostdin
Input #0, matroska,webm, from '/tmp/autopkgtest.sC35DO/autopkgtest_tmp/test/libopencore_amrnb.matroska':
  Metadata:
    ENCODER         : Lavf58.29.100
  Duration: 00:00:00.10, start: 0.000000, bitrate: 138 kb/s
    Stream #0:0: Audio: amr_nb (8[0][0][0] / 0x0038), 44100 Hz, mono, flt, 128 kb/s (default)
    Metadata:
      ENCODER         : Lavc58.54.100 libopencore_amrnb
      DURATION        : 00:00:00.101000000
Stream mapping:
  Stream #0:0 -> #0:0 (amr_nb (amrnb) -> pcm_s32le (native))
Output #0, nut, to '/dev/null':
  Metadata:
    encoder         : Lavf58.29.100
    Stream #0:0: Audio: pcm_s32le (PSD  / 0x20445350), 44100 Hz, mono, s32, 1411 kb/s (default)
    Metadata:
      DURATION        : 00:00:00.101000000
      encoder         : Lavc58.54.100 pcm_s32le
size=      18kB time=00:00:00.10 bitrate=1449.8kbits/s speed=1.84x    
video:0kB audio:18kB subtitle:0kB other streams:0kB global headers:0kB muxing overhead: 2.622768%


ffmpeg -strict -2 -i /tmp/autopkgtest.sC35DO/autopkgtest_tmp/test/libopencore_amrnb.matroska -t 1 -c copy -f matroska /tmp/autopkgtest.sC35DO/autopkgtest_tmp/test/libopencore_amrnb.matroska.copy.matroska -y -hide_banner -nostdin
Input #0, matroska,webm, from '/tmp/autopkgtest.sC35DO/autopkgtest_tmp/test/libopencore_amrnb.matroska':
  Metadata:
    ENCODER         : Lavf58.29.100
  Duration: 00:00:00.10, start: 0.000000, bitrate: 138 kb/s
    Stream #0:0: Audio: amr_nb (8[0][0][0] / 0x0038), 44100 Hz, mono, flt, 128 kb/s (default)
    Metadata:
      ENCODER         : Lavc58.54.100 libopencore_amrnb
      DURATION        : 00:00:00.101000000
Output #0, matroska, to '/tmp/autopkgtest.sC35DO/autopkgtest_tmp/test/libopencore_amrnb.matroska.copy.matroska':
  Metadata:
    encoder         : Lavf58.29.100
    Stream #0:0: Audio: amr_nb (8[0][0][0] / 0x0038), 44100 Hz, mono, flt, 128 kb/s (default)
    Metadata:
      ENCODER         : Lavc58.54.100 libopencore_amrnb
      DURATION        : 00:00:00.101000000
Stream mapping:
  Stream #0:0 -> #0:0 (copy)
size=       2kB time=00:00:00.09 bitrate= 142.9kbits/s speed=14.7x    
video:0kB audio:1kB subtitle:0kB other streams:0kB global headers:0kB muxing overhead: 95.424110%

SUCCESS: correctly created file with format 'matroska' and codec 'a=amr_nb:libopencore_amrnb'; streamcopying works


Test 13:
trying muxer 'matroska' with 'a' encoder 'libvo_amrwbenc' for codec 'amr_wb'

ffmpeg -f lavfi -i sine=d=0.1 -strict -2 -c:a libvo_amrwbenc -f matroska /tmp/autopkgtest.sC35DO/autopkgtest_tmp/test/libvo_amrwbenc.matroska -y -hide_banner -nostdin
Input #0, lavfi, from 'sine=d=0.1':
  Duration: N/A, start: 0.000000, bitrate: 705 kb/s
    Stream #0:0: Audio: pcm_s16le, 44100 Hz, mono, s16, 705 kb/s
Stream mapping:
  Stream #0:0 -> #0:0 (pcm_s16le (native) -> amr_wb (libvo_amrwbenc))
[libvo_amrwbenc @ 0x2b0761d000] bitrate not supported: use one of 6.60k, 8.85k, 12.65k, 14.25k, 15.85k, 18.25k, 19.85k, 23.05k, 23.85k, using 23.85k
Output #0, matroska, to '/tmp/autopkgtest.sC35DO/autopkgtest_tmp/test/libvo_amrwbenc.matroska':
  Metadata:
    encoder         : Lavf58.29.100
    Stream #0:0: Audio: amr_wb (libvo_amrwbenc) (X[0][0][0] / 0x0058), 44100 Hz, mono, s16, 128 kb/s
    Metadata:
      encoder         : Lavc58.54.100 libvo_amrwbenc
[Parsed_sine_0 @ 0x2b075d3b60] EOF timestamp not reliable
size=       2kB time=00:00:00.10 bitrate= 128.5kbits/s speed=1.65x    
video:0kB audio:1kB subtitle:0kB other streams:0kB global headers:0kB muxing overhead: 89.929741%


ffmpeg -strict -2 -i /tmp/autopkgtest.sC35DO/autopkgtest_tmp/test/libvo_amrwbenc.matroska -t 1 -c:v rawvideo -c:a pcm_s32le -f nut /dev/null -y -hide_banner -nostdin
Input #0, matroska,webm, from '/tmp/autopkgtest.sC35DO/autopkgtest_tmp/test/libvo_amrwbenc.matroska':
  Metadata:
    ENCODER         : Lavf58.29.100
  Duration: 00:00:00.10, start: 0.000000, bitrate: 127 kb/s
    Stream #0:0: Audio: amr_wb (X[0][0][0] / 0x0058), 44100 Hz, mono, flt, 128 kb/s (default)
    Metadata:
      ENCODER         : Lavc58.54.100 libvo_amrwbenc
      DURATION        : 00:00:00.102000000
Stream mapping:
  Stream #0:0 -> #0:0 (amr_wb (amrwb) -> pcm_s32le (native))
Output #0, nut, to '/dev/null':
  Metadata:
    encoder         : Lavf58.29.100
    Stream #0:0: Audio: pcm_s32le (PSD  / 0x20445350), 44100 Hz, mono, s32, 1411 kb/s (default)
    Metadata:
      DURATION        : 00:00:00.102000000
      encoder         : Lavc58.54.100 pcm_s32le
size=      18kB time=00:00:00.10 bitrate=1440.4kbits/s speed=1.52x    
video:0kB audio:18kB subtitle:0kB other streams:0kB global headers:0kB muxing overhead: 2.232143%


ffmpeg -strict -2 -i /tmp/autopkgtest.sC35DO/autopkgtest_tmp/test/libvo_amrwbenc.matroska -t 1 -c copy -f matroska /tmp/autopkgtest.sC35DO/autopkgtest_tmp/test/libvo_amrwbenc.matroska.copy.matroska -y -hide_banner -nostdin
Input #0, matroska,webm, from '/tmp/autopkgtest.sC35DO/autopkgtest_tmp/test/libvo_amrwbenc.matroska':
  Metadata:
    ENCODER         : Lavf58.29.100
  Duration: 00:00:00.10, start: 0.000000, bitrate: 127 kb/s
    Stream #0:0: Audio: amr_wb (X[0][0][0] / 0x0058), 44100 Hz, mono, flt, 128 kb/s (default)
    Metadata:
      ENCODER         : Lavc58.54.100 libvo_amrwbenc
      DURATION        : 00:00:00.102000000
Output #0, matroska, to '/tmp/autopkgtest.sC35DO/autopkgtest_tmp/test/libvo_amrwbenc.matroska.copy.matroska':
  Metadata:
    encoder         : Lavf58.29.100
    Stream #0:0: Audio: amr_wb (X[0][0][0] / 0x0058), 44100 Hz, mono, flt, 128 kb/s (default)
    Metadata:
      ENCODER         : Lavc58.54.100 libvo_amrwbenc
      DURATION        : 00:00:00.102000000
Stream mapping:
  Stream #0:0 -> #0:0 (copy)
size=       2kB time=00:00:00.09 bitrate= 136.6kbits/s speed=  15x    
video:0kB audio:1kB subtitle:0kB other streams:0kB global headers:0kB muxing overhead: 89.929741%

SUCCESS: correctly created file with format 'matroska' and codec 'a=amr_wb:libvo_amrwbenc'; streamcopying works


Test 14:
trying muxer 'mov' with 'a' encoder 'libopencore_amrnb' for codec 'amr_nb'

ffmpeg -f lavfi -i sine=d=0.1 -strict -2 -c:a libopencore_amrnb -f mov /tmp/autopkgtest.sC35DO/autopkgtest_tmp/test/libopencore_amrnb.mov -y -hide_banner -nostdin
Input #0, lavfi, from 'sine=d=0.1':
  Duration: N/A, start: 0.000000, bitrate: 705 kb/s
    Stream #0:0: Audio: pcm_s16le, 44100 Hz, mono, s16, 705 kb/s
Stream mapping:
  Stream #0:0 -> #0:0 (pcm_s16le (native) -> amr_nb (libopencore_amrnb))
[libopencore_amrnb @ 0x2afa6f3ac0] bitrate not supported: use one of 4.75k, 5.15k, 5.90k, 6.70k, 7.40k, 7.95k, 10.20k, 12.20k, using 12.20k
Output #0, mov, to '/tmp/autopkgtest.sC35DO/autopkgtest_tmp/test/libopencore_amrnb.mov':
  Metadata:
    encoder         : Lavf58.29.100
    Stream #0:0: Audio: amr_nb (libopencore_amrnb) (samr / 0x726D6173), 44100 Hz, mono, s16, 128 kb/s
    Metadata:
      encoder         : Lavc58.54.100 libopencore_amrnb
[Parsed_sine_0 @ 0x2afa6aab60] EOF timestamp not reliable
size=       2kB time=00:00:00.10 bitrate= 131.5kbits/s speed=2.31x    
video:0kB audio:1kB subtitle:0kB other streams:0kB global headers:0kB muxing overhead: 84.263390%


ffmpeg -strict -2 -i /tmp/autopkgtest.sC35DO/autopkgtest_tmp/test/libopencore_amrnb.mov -t 1 -c:v rawvideo -c:a pcm_s32le -f nut /dev/null -y -hide_banner -nostdin
Input #0, mov,mp4,m4a,3gp,3g2,mj2, from '/tmp/autopkgtest.sC35DO/autopkgtest_tmp/test/libopencore_amrnb.mov':
  Metadata:
    major_brand     : qt  
    minor_version   : 512
    compatible_brands: qt  
    encoder         : Lavf58.29.100
  Duration: 00:00:00.10, start: 0.000000, bitrate: 129 kb/s
    Stream #0:0: Audio: amr_nb (samr / 0x726D6173), 8000 Hz, mono, flt, 70 kb/s (default)
    Metadata:
      handler_name    : SoundHandler
Stream mapping:
  Stream #0:0 -> #0:0 (amr_nb (amrnb) -> pcm_s32le (native))
Output #0, nut, to '/dev/null':
  Metadata:
    major_brand     : qt  
    minor_version   : 512
    compatible_brands: qt  
    encoder         : Lavf58.29.100
    Stream #0:0: Audio: pcm_s32le (PSD  / 0x20445350), 8000 Hz, mono, s32, 256 kb/s (default)
    Metadata:
      handler_name    : SoundHandler
      encoder         : Lavc58.54.100 pcm_s32le
[nut @ 0x2b198cf2e0] Non-monotonous DTS in output stream 0:0; previous: 41, current: 20; changing to 42. This may result in incorrect timestamps in the output file.
size=      18kB time=00:00:00.11 bitrate=1248.5kbits/s speed=2.21x    
video:0kB audio:17kB subtitle:0kB other streams:0kB global headers:0kB muxing overhead: 2.934537%


ffmpeg -strict -2 -i /tmp/autopkgtest.sC35DO/autopkgtest_tmp/test/libopencore_amrnb.mov -t 1 -c copy -f mov /tmp/autopkgtest.sC35DO/autopkgtest_tmp/test/libopencore_amrnb.mov.copy.mov -y -hide_banner -nostdin
Input #0, mov,mp4,m4a,3gp,3g2,mj2, from '/tmp/autopkgtest.sC35DO/autopkgtest_tmp/test/libopencore_amrnb.mov':
  Metadata:
    major_brand     : qt  
    minor_version   : 512
    compatible_brands: qt  
    encoder         : Lavf58.29.100
  Duration: 00:00:00.10, start: 0.000000, bitrate: 129 kb/s
    Stream #0:0: Audio: amr_nb (samr / 0x726D6173), 8000 Hz, mono, flt, 70 kb/s (default)
    Metadata:
      handler_name    : SoundHandler
[mov @ 0x2b1552d2c0] track 0: codec frame size is not set
Output #0, mov, to '/tmp/autopkgtest.sC35DO/autopkgtest_tmp/test/libopencore_amrnb.mov.copy.mov':
  Metadata:
    major_brand     : qt  
    minor_version   : 512
    compatible_brands: qt  
    encoder         : Lavf58.29.100
    Stream #0:0: Audio: amr_nb (samr / 0x726D6173), 8000 Hz, mono, flt, 70 kb/s (default)
    Metadata:
      handler_name    : SoundHandler
Stream mapping:
  Stream #0:0 -> #0:0 (copy)
size=       2kB time=00:00:00.09 bitrate= 137.7kbits/s speed=14.6x    
video:0kB audio:1kB subtitle:0kB other streams:0kB global headers:0kB muxing overhead: 86.049110%

SUCCESS: correctly created file with format 'mov' and codec 'a=amr_nb:libopencore_amrnb'; streamcopying works


Test 15:
trying muxer 'mov' with 'a' encoder 'libvo_amrwbenc' for codec 'amr_wb'

ffmpeg -f lavfi -i sine=d=0.1 -strict -2 -c:a libvo_amrwbenc -f mov /tmp/autopkgtest.sC35DO/autopkgtest_tmp/test/libvo_amrwbenc.mov -y -hide_banner -nostdin
Input #0, lavfi, from 'sine=d=0.1':
  Duration: N/A, start: 0.000000, bitrate: 705 kb/s
    Stream #0:0: Audio: pcm_s16le, 44100 Hz, mono, s16, 705 kb/s
Stream mapping:
  Stream #0:0 -> #0:0 (pcm_s16le (native) -> amr_wb (libvo_amrwbenc))
[libvo_amrwbenc @ 0x2b0c9f1ac0] bitrate not supported: use one of 6.60k, 8.85k, 12.65k, 14.25k, 15.85k, 18.25k, 19.85k, 23.05k, 23.85k, using 23.85k
Output #0, mov, to '/tmp/autopkgtest.sC35DO/autopkgtest_tmp/test/libvo_amrwbenc.mov':
  Metadata:
    encoder         : Lavf58.29.100
    Stream #0:0: Audio: amr_wb (libvo_amrwbenc) (sawb / 0x62776173), 44100 Hz, mono, s16, 128 kb/s
    Metadata:
      encoder         : Lavc58.54.100 libvo_amrwbenc
[Parsed_sine_0 @ 0x2b0c9a8b60] EOF timestamp not reliable
size=       2kB time=00:00:00.09 bitrate= 124.8kbits/s speed=1.96x    
video:0kB audio:1kB subtitle:0kB other streams:0kB global headers:0kB muxing overhead: 82.201408%


ffmpeg -strict -2 -i /tmp/autopkgtest.sC35DO/autopkgtest_tmp/test/libvo_amrwbenc.mov -t 1 -c:v rawvideo -c:a pcm_s32le -f nut /dev/null -y -hide_banner -nostdin
Input #0, mov,mp4,m4a,3gp,3g2,mj2, from '/tmp/autopkgtest.sC35DO/autopkgtest_tmp/test/libvo_amrwbenc.mov':
  Metadata:
    major_brand     : qt  
    minor_version   : 512
    compatible_brands: qt  
    encoder         : Lavf58.29.100
  Duration: 00:00:00.10, start: 0.000000, bitrate: 122 kb/s
    Stream #0:0: Audio: amr_wb (sawb / 0x62776173), 16000 Hz, mono, flt, 67 kb/s (default)
    Metadata:
      handler_name    : SoundHandler
Stream mapping:
  Stream #0:0 -> #0:0 (amr_wb (amrwb) -> pcm_s32le (native))
Output #0, nut, to '/dev/null':
  Metadata:
    major_brand     : qt  
    minor_version   : 512
    compatible_brands: qt  
    encoder         : Lavf58.29.100
    Stream #0:0: Audio: pcm_s32le (PSD  / 0x20445350), 16000 Hz, mono, s32, 512 kb/s (default)
    Metadata:
      handler_name    : SoundHandler
      encoder         : Lavc58.54.100 pcm_s32le
size=      18kB time=00:00:00.11 bitrate=1283.9kbits/s speed=1.93x    
video:0kB audio:17kB subtitle:0kB other streams:0kB global headers:0kB muxing overhead: 2.585227%


ffmpeg -strict -2 -i /tmp/autopkgtest.sC35DO/autopkgtest_tmp/test/libvo_amrwbenc.mov -t 1 -c copy -f mov /tmp/autopkgtest.sC35DO/autopkgtest_tmp/test/libvo_amrwbenc.mov.copy.mov -y -hide_banner -nostdin
Input #0, mov,mp4,m4a,3gp,3g2,mj2, from '/tmp/autopkgtest.sC35DO/autopkgtest_tmp/test/libvo_amrwbenc.mov':
  Metadata:
    major_brand     : qt  
    minor_version   : 512
    compatible_brands: qt  
    encoder         : Lavf58.29.100
  Duration: 00:00:00.10, start: 0.000000, bitrate: 122 kb/s
    Stream #0:0: Audio: amr_wb (sawb / 0x62776173), 16000 Hz, mono, flt, 67 kb/s (default)
    Metadata:
      handler_name    : SoundHandler
[mov @ 0x2ada61ae80] track 0: codec frame size is not set
Output #0, mov, to '/tmp/autopkgtest.sC35DO/autopkgtest_tmp/test/libvo_amrwbenc.mov.copy.mov':
  Metadata:
    major_brand     : qt  
    minor_version   : 512
    compatible_brands: qt  
    encoder         : Lavf58.29.100
    Stream #0:0: Audio: amr_wb (sawb / 0x62776173), 16000 Hz, mono, flt, 67 kb/s (default)
    Metadata:
      handler_name    : SoundHandler
Stream mapping:
  Stream #0:0 -> #0:0 (copy)
size=       2kB time=00:00:00.09 bitrate= 136.6kbits/s speed=  14x    
video:0kB audio:1kB subtitle:0kB other streams:0kB global headers:0kB muxing overhead: 85.011711%

SUCCESS: correctly created file with format 'mov' and codec 'a=amr_wb:libvo_amrwbenc'; streamcopying works


Test 16:
trying muxer 'nut' with 'a' encoder 'libopencore_amrnb' for codec 'amr_nb'

ffmpeg -f lavfi -i sine=d=0.1 -strict -2 -c:a libopencore_amrnb -f nut /tmp/autopkgtest.sC35DO/autopkgtest_tmp/test/libopencore_amrnb.nut -y -hide_banner -nostdin
Input #0, lavfi, from 'sine=d=0.1':
  Duration: N/A, start: 0.000000, bitrate: 705 kb/s
    Stream #0:0: Audio: pcm_s16le, 44100 Hz, mono, s16, 705 kb/s
Stream mapping:
  Stream #0:0 -> #0:0 (pcm_s16le (native) -> amr_nb (libopencore_amrnb))
[libopencore_amrnb @ 0x2af877bbd0] bitrate not supported: use one of 4.75k, 5.15k, 5.90k, 6.70k, 7.40k, 7.95k, 10.20k, 12.20k, using 12.20k
Output #0, nut, to '/tmp/autopkgtest.sC35DO/autopkgtest_tmp/test/libopencore_amrnb.nut':
  Metadata:
    encoder         : Lavf58.29.100
    Stream #0:0: Audio: amr_nb (libopencore_amrnb) (8[0][0][0] / 0x0038), 44100 Hz, mono, s16, 128 kb/s
    Metadata:
      encoder         : Lavc58.54.100 libopencore_amrnb
[Parsed_sine_0 @ 0x2af8731b60] EOF timestamp not reliable
size=       1kB time=00:00:00.10 bitrate=  99.1kbits/s speed=2.14x    
video:0kB audio:1kB subtitle:0kB other streams:0kB global headers:0kB muxing overhead: 38.839287%


ffmpeg -strict -2 -i /tmp/autopkgtest.sC35DO/autopkgtest_tmp/test/libopencore_amrnb.nut -t 1 -c:v rawvideo -c:a pcm_s32le -f nut /dev/null -y -hide_banner -nostdin
Input #0, nut, from '/tmp/autopkgtest.sC35DO/autopkgtest_tmp/test/libopencore_amrnb.nut':
  Metadata:
    encoder         : Lavf58.29.100
  Duration: 00:00:00.10, start: 0.000000, bitrate: 101 kb/s
    Stream #0:0: Audio: amr_nb (8[0][0][0] / 0x0038), 44100 Hz, mono, flt
    Metadata:
      encoder         : Lavc58.54.100 libopencore_amrnb
Stream mapping:
  Stream #0:0 -> #0:0 (amr_nb (amrnb) -> pcm_s32le (native))
Output #0, nut, to '/dev/null':
  Metadata:
    encoder         : Lavf58.29.100
    Stream #0:0: Audio: pcm_s32le (PSD  / 0x20445350), 44100 Hz, mono, s32, 1411 kb/s
    Metadata:
      encoder         : Lavc58.54.100 pcm_s32le
size=      18kB time=00:00:00.10 bitrate=1444.3kbits/s speed=1.96x    
video:0kB audio:18kB subtitle:0kB other streams:0kB global headers:0kB muxing overhead: 2.343750%


ffmpeg -strict -2 -i /tmp/autopkgtest.sC35DO/autopkgtest_tmp/test/libopencore_amrnb.nut -t 1 -c copy -f nut /tmp/autopkgtest.sC35DO/autopkgtest_tmp/test/libopencore_amrnb.nut.copy.nut -y -hide_banner -nostdin
Input #0, nut, from '/tmp/autopkgtest.sC35DO/autopkgtest_tmp/test/libopencore_amrnb.nut':
  Metadata:
    encoder         : Lavf58.29.100
  Duration: 00:00:00.10, start: 0.000000, bitrate: 101 kb/s
    Stream #0:0: Audio: amr_nb (8[0][0][0] / 0x0038), 44100 Hz, mono, flt
    Metadata:
      encoder         : Lavc58.54.100 libopencore_amrnb
Output #0, nut, to '/tmp/autopkgtest.sC35DO/autopkgtest_tmp/test/libopencore_amrnb.nut.copy.nut':
  Metadata:
    encoder         : Lavf58.29.100
    Stream #0:0: Audio: amr_nb (8[0][0][0] / 0x0038), 44100 Hz, mono, flt
    Metadata:
      encoder         : Lavc58.54.100 libopencore_amrnb
Stream mapping:
  Stream #0:0 -> #0:0 (copy)
size=       1kB time=00:00:00.09 bitrate= 101.2kbits/s speed=  20x    
video:0kB audio:1kB subtitle:0kB other streams:0kB global headers:0kB muxing overhead: 38.281250%

SUCCESS: correctly created file with format 'nut' and codec 'a=amr_nb:libopencore_amrnb'; streamcopying works


Test 17:
trying muxer 'nut' with 'a' encoder 'libvo_amrwbenc' for codec 'amr_wb'

ffmpeg -f lavfi -i sine=d=0.1 -strict -2 -c:a libvo_amrwbenc -f nut /tmp/autopkgtest.sC35DO/autopkgtest_tmp/test/libvo_amrwbenc.nut -y -hide_banner -nostdin
Input #0, lavfi, from 'sine=d=0.1':
  Duration: N/A, start: 0.000000, bitrate: 705 kb/s
    Stream #0:0: Audio: pcm_s16le, 44100 Hz, mono, s16, 705 kb/s
Stream mapping:
  Stream #0:0 -> #0:0 (pcm_s16le (native) -> amr_wb (libvo_amrwbenc))
[libvo_amrwbenc @ 0x2ae9521bd0] bitrate not supported: use one of 6.60k, 8.85k, 12.65k, 14.25k, 15.85k, 18.25k, 19.85k, 23.05k, 23.85k, using 23.85k
Output #0, nut, to '/tmp/autopkgtest.sC35DO/autopkgtest_tmp/test/libvo_amrwbenc.nut':
  Metadata:
    encoder         : Lavf58.29.100
    Stream #0:0: Audio: amr_wb (libvo_amrwbenc) (X[0][0][0] / 0x0058), 44100 Hz, mono, s16, 128 kb/s
    Metadata:
      encoder         : Lavc58.54.100 libvo_amrwbenc
[Parsed_sine_0 @ 0x2ae94d7b60] EOF timestamp not reliable
size=       1kB time=00:00:00.09 bitrate=  93.9kbits/s speed=1.71x    
video:0kB audio:1kB subtitle:0kB other streams:0kB global headers:0kB muxing overhead: 37.119438%


ffmpeg -strict -2 -i /tmp/autopkgtest.sC35DO/autopkgtest_tmp/test/libvo_amrwbenc.nut -t 1 -c:v rawvideo -c:a pcm_s32le -f nut /dev/null -y -hide_banner -nostdin
Input #0, nut, from '/tmp/autopkgtest.sC35DO/autopkgtest_tmp/test/libvo_amrwbenc.nut':
  Metadata:
    encoder         : Lavf58.29.100
  Duration: 00:00:00.09, start: 0.000000, bitrate: 99 kb/s
    Stream #0:0: Audio: amr_wb (X[0][0][0] / 0x0058), 44100 Hz, mono, flt
    Metadata:
      encoder         : Lavc58.54.100 libvo_amrwbenc
Stream mapping:
  Stream #0:0 -> #0:0 (amr_wb (amrwb) -> pcm_s32le (native))
Output #0, nut, to '/dev/null':
  Metadata:
    encoder         : Lavf58.29.100
    Stream #0:0: Audio: pcm_s32le (PSD  / 0x20445350), 44100 Hz, mono, s32, 1411 kb/s
    Metadata:
      encoder         : Lavc58.54.100 pcm_s32le
size=      18kB time=00:00:00.10 bitrate=1438.8kbits/s speed=1.68x    
video:0kB audio:18kB subtitle:0kB other streams:0kB global headers:0kB muxing overhead: 1.953125%


ffmpeg -strict -2 -i /tmp/autopkgtest.sC35DO/autopkgtest_tmp/test/libvo_amrwbenc.nut -t 1 -c copy -f nut /tmp/autopkgtest.sC35DO/autopkgtest_tmp/test/libvo_amrwbenc.nut.copy.nut -y -hide_banner -nostdin
Input #0, nut, from '/tmp/autopkgtest.sC35DO/autopkgtest_tmp/test/libvo_amrwbenc.nut':
  Metadata:
    encoder         : Lavf58.29.100
  Duration: 00:00:00.09, start: 0.000000, bitrate: 99 kb/s
    Stream #0:0: Audio: amr_wb (X[0][0][0] / 0x0058), 44100 Hz, mono, flt
    Metadata:
      encoder         : Lavc58.54.100 libvo_amrwbenc
Output #0, nut, to '/tmp/autopkgtest.sC35DO/autopkgtest_tmp/test/libvo_amrwbenc.nut.copy.nut':
  Metadata:
    encoder         : Lavf58.29.100
    Stream #0:0: Audio: amr_wb (X[0][0][0] / 0x0058), 44100 Hz, mono, flt
    Metadata:
      encoder         : Lavc58.54.100 libvo_amrwbenc
Stream mapping:
  Stream #0:0 -> #0:0 (copy)
size=       1kB time=00:00:00.09 bitrate=  98.9kbits/s speed=20.3x    
video:0kB audio:1kB subtitle:0kB other streams:0kB global headers:0kB muxing overhead: 36.533958%

SUCCESS: correctly created file with format 'nut' and codec 'a=amr_wb:libvo_amrwbenc'; streamcopying works


Test 18:
trying muxer 'w64' with 'a' encoder 'libopencore_amrnb' for codec 'amr_nb'

ffmpeg -f lavfi -i sine=d=0.1 -strict -2 -c:a libopencore_amrnb -f w64 /tmp/autopkgtest.sC35DO/autopkgtest_tmp/test/libopencore_amrnb.w64 -y -hide_banner -nostdin
Input #0, lavfi, from 'sine=d=0.1':
  Duration: N/A, start: 0.000000, bitrate: 705 kb/s
    Stream #0:0: Audio: pcm_s16le, 44100 Hz, mono, s16, 705 kb/s
Stream mapping:
  Stream #0:0 -> #0:0 (pcm_s16le (native) -> amr_nb (libopencore_amrnb))
[libopencore_amrnb @ 0x2b1d4fcac0] bitrate not supported: use one of 4.75k, 5.15k, 5.90k, 6.70k, 7.40k, 7.95k, 10.20k, 12.20k, using 12.20k
Output #0, w64, to '/tmp/autopkgtest.sC35DO/autopkgtest_tmp/test/libopencore_amrnb.w64':
  Metadata:
    encoder         : Lavf58.29.100
    Stream #0:0: Audio: amr_nb (libopencore_amrnb) (8[0][0][0] / 0x0038), 44100 Hz, mono, s16, 128 kb/s
    Metadata:
      encoder         : Lavc58.54.100 libopencore_amrnb
[Parsed_sine_0 @ 0x2b1d4b3b60] EOF timestamp not reliable
size=       1kB time=00:00:00.10 bitrate=  82.8kbits/s speed=2.03x    
video:0kB audio:1kB subtitle:0kB other streams:0kB global headers:0kB muxing overhead: 16.071428%


ffmpeg -strict -2 -i /tmp/autopkgtest.sC35DO/autopkgtest_tmp/test/libopencore_amrnb.w64 -t 1 -c:v rawvideo -c:a pcm_s32le -f nut /dev/null -y -hide_banner -nostdin
Input #0, w64, from '/tmp/autopkgtest.sC35DO/autopkgtest_tmp/test/libopencore_amrnb.w64':
  Duration: 00:00:00.10, bitrate: 82 kb/s
    Stream #0:0: Audio: amr_nb (8[0][0][0] / 0x0038), 44100 Hz, mono, flt, 128 kb/s
Stream mapping:
  Stream #0:0 -> #0:0 (amr_nb (amrnb) -> pcm_s32le (native))
[amrnb @ 0x2b076a4fd0] Multiple frames in a packet.
Output #0, nut, to '/dev/null':
  Metadata:
    encoder         : Lavf58.29.100
    Stream #0:0: Audio: pcm_s32le (PSD  / 0x20445350), 44100 Hz, mono, s32, 1411 kb/s
    Metadata:
      encoder         : Lavc58.54.100 pcm_s32le
size=      18kB time=00:00:00.10 bitrate=1444.3kbits/s speed=1.62x    
video:0kB audio:18kB subtitle:0kB other streams:0kB global headers:0kB muxing overhead: 2.343750%


ffmpeg -strict -2 -i /tmp/autopkgtest.sC35DO/autopkgtest_tmp/test/libopencore_amrnb.w64 -t 1 -c copy -f w64 /tmp/autopkgtest.sC35DO/autopkgtest_tmp/test/libopencore_amrnb.w64.copy.w64 -y -hide_banner -nostdin
Input #0, w64, from '/tmp/autopkgtest.sC35DO/autopkgtest_tmp/test/libopencore_amrnb.w64':
  Duration: 00:00:00.10, bitrate: 82 kb/s
    Stream #0:0: Audio: amr_nb (8[0][0][0] / 0x0038), 44100 Hz, mono, flt, 128 kb/s
Output #0, w64, to '/tmp/autopkgtest.sC35DO/autopkgtest_tmp/test/libopencore_amrnb.w64.copy.w64':
  Metadata:
    encoder         : Lavf58.29.100
    Stream #0:0: Audio: amr_nb (8[0][0][0] / 0x0038), 44100 Hz, mono, flt, 128 kb/s
Stream mapping:
  Stream #0:0 -> #0:0 (copy)
size=       1kB time=00:00:00.00 bitrate=N/A speed=   0x    
video:0kB audio:1kB subtitle:0kB other streams:0kB global headers:0kB muxing overhead: 16.071428%

SUCCESS: correctly created file with format 'w64' and codec 'a=amr_nb:libopencore_amrnb'; streamcopying works


Test 19:
trying muxer 'w64' with 'a' encoder 'libvo_amrwbenc' for codec 'amr_wb'

ffmpeg -f lavfi -i sine=d=0.1 -strict -2 -c:a libvo_amrwbenc -f w64 /tmp/autopkgtest.sC35DO/autopkgtest_tmp/test/libvo_amrwbenc.w64 -y -hide_banner -nostdin
Input #0, lavfi, from 'sine=d=0.1':
  Duration: N/A, start: 0.000000, bitrate: 705 kb/s
    Stream #0:0: Audio: pcm_s16le, 44100 Hz, mono, s16, 705 kb/s
Stream mapping:
  Stream #0:0 -> #0:0 (pcm_s16le (native) -> amr_wb (libvo_amrwbenc))
[libvo_amrwbenc @ 0x2adc046ac0] bitrate not supported: use one of 6.60k, 8.85k, 12.65k, 14.25k, 15.85k, 18.25k, 19.85k, 23.05k, 23.85k, using 23.85k
Output #0, w64, to '/tmp/autopkgtest.sC35DO/autopkgtest_tmp/test/libvo_amrwbenc.w64':
  Metadata:
    encoder         : Lavf58.29.100
    Stream #0:0: Audio: amr_wb (libvo_amrwbenc) (X[0][0][0] / 0x0058), 44100 Hz, mono, s16, 128 kb/s
    Metadata:
      encoder         : Lavc58.54.100 libvo_amrwbenc
[Parsed_sine_0 @ 0x2adbffdb60] EOF timestamp not reliable
size=       1kB time=00:00:00.09 bitrate=  80.2kbits/s speed=1.53x    
video:0kB audio:1kB subtitle:0kB other streams:0kB global headers:0kB muxing overhead: 17.096018%


ffmpeg -strict -2 -i /tmp/autopkgtest.sC35DO/autopkgtest_tmp/test/libvo_amrwbenc.w64 -t 1 -c:v rawvideo -c:a pcm_s32le -f nut /dev/null -y -hide_banner -nostdin
Input #0, w64, from '/tmp/autopkgtest.sC35DO/autopkgtest_tmp/test/libvo_amrwbenc.w64':
  Duration: 00:00:00.10, bitrate: 78 kb/s
    Stream #0:0: Audio: amr_wb (X[0][0][0] / 0x0058), 44100 Hz, mono, flt, 128 kb/s
Stream mapping:
  Stream #0:0 -> #0:0 (amr_wb (amrwb) -> pcm_s32le (native))
[amrwb @ 0x2b02179fd0] Multiple frames in a packet.
[amrwb @ 0x2b02179fd0] Frame too small (2 bytes). Truncated file?
Error while decoding stream #0:0: Invalid data found when processing input
Output #0, nut, to '/dev/null':
  Metadata:
    encoder         : Lavf58.29.100
    Stream #0:0: Audio: pcm_s32le (PSD  / 0x20445350), 44100 Hz, mono, s32, 1411 kb/s
    Metadata:
      encoder         : Lavc58.54.100 pcm_s32le
size=      18kB time=00:00:00.10 bitrate=1438.8kbits/s speed=1.53x    
video:0kB audio:18kB subtitle:0kB other streams:0kB global headers:0kB muxing overhead: 1.953125%


ffmpeg -strict -2 -i /tmp/autopkgtest.sC35DO/autopkgtest_tmp/test/libvo_amrwbenc.w64 -t 1 -c copy -f w64 /tmp/autopkgtest.sC35DO/autopkgtest_tmp/test/libvo_amrwbenc.w64.copy.w64 -y -hide_banner -nostdin
Input #0, w64, from '/tmp/autopkgtest.sC35DO/autopkgtest_tmp/test/libvo_amrwbenc.w64':
  Duration: 00:00:00.10, bitrate: 78 kb/s
    Stream #0:0: Audio: amr_wb (X[0][0][0] / 0x0058), 44100 Hz, mono, flt, 128 kb/s
Output #0, w64, to '/tmp/autopkgtest.sC35DO/autopkgtest_tmp/test/libvo_amrwbenc.w64.copy.w64':
  Metadata:
    encoder         : Lavf58.29.100
    Stream #0:0: Audio: amr_wb (X[0][0][0] / 0x0058), 44100 Hz, mono, flt, 128 kb/s
Stream mapping:
  Stream #0:0 -> #0:0 (copy)
size=       1kB time=00:00:00.00 bitrate=N/A speed=   0x    
video:0kB audio:1kB subtitle:0kB other streams:0kB global headers:0kB muxing overhead: 16.822430%

SUCCESS: correctly created file with format 'w64' and codec 'a=amr_wb:libvo_amrwbenc'; streamcopying works


Test 20:
trying muxer 'wav' with 'a' encoder 'libopencore_amrnb' for codec 'amr_nb'

ffmpeg -f lavfi -i sine=d=0.1 -strict -2 -c:a libopencore_amrnb -f wav /tmp/autopkgtest.sC35DO/autopkgtest_tmp/test/libopencore_amrnb.wav -y -hide_banner -nostdin
Input #0, lavfi, from 'sine=d=0.1':
  Duration: N/A, start: 0.000000, bitrate: 705 kb/s
    Stream #0:0: Audio: pcm_s16le, 44100 Hz, mono, s16, 705 kb/s
Stream mapping:
  Stream #0:0 -> #0:0 (pcm_s16le (native) -> amr_nb (libopencore_amrnb))
[libopencore_amrnb @ 0x2afaafbac0] bitrate not supported: use one of 4.75k, 5.15k, 5.90k, 6.70k, 7.40k, 7.95k, 10.20k, 12.20k, using 12.20k
Output #0, wav, to '/tmp/autopkgtest.sC35DO/autopkgtest_tmp/test/libopencore_amrnb.wav':
  Metadata:
    ISFT            : Lavf58.29.100
    Stream #0:0: Audio: amr_nb (libopencore_amrnb) (8[0][0][0] / 0x0038), 44100 Hz, mono, s16, 128 kb/s
    Metadata:
      encoder         : Lavc58.54.100 libopencore_amrnb
[Parsed_sine_0 @ 0x2afaab2b60] EOF timestamp not reliable
size=       1kB time=00:00:00.10 bitrate=  78.7kbits/s speed=2.08x    
video:0kB audio:1kB subtitle:0kB other streams:0kB global headers:0kB muxing overhead: 10.267858%


ffmpeg -strict -2 -i /tmp/autopkgtest.sC35DO/autopkgtest_tmp/test/libopencore_amrnb.wav -t 1 -c:v rawvideo -c:a pcm_s32le -f nut /dev/null -y -hide_banner -nostdin
Input #0, wav, from '/tmp/autopkgtest.sC35DO/autopkgtest_tmp/test/libopencore_amrnb.wav':
  Metadata:
    encoder         : Lavf58.29.100
  Duration: 00:00:00.10, bitrate: 78 kb/s
    Stream #0:0: Audio: amr_nb (8[0][0][0] / 0x0038), 44100 Hz, mono, flt, 128 kb/s
Stream mapping:
  Stream #0:0 -> #0:0 (amr_nb (amrnb) -> pcm_s32le (native))
[amrnb @ 0x2adee64fd0] Multiple frames in a packet.
Output #0, nut, to '/dev/null':
  Metadata:
    encoder         : Lavf58.29.100
    Stream #0:0: Audio: pcm_s32le (PSD  / 0x20445350), 44100 Hz, mono, s32, 1411 kb/s
    Metadata:
      encoder         : Lavc58.54.100 pcm_s32le
size=      18kB time=00:00:00.10 bitrate=1444.3kbits/s speed=1.82x    
video:0kB audio:18kB subtitle:0kB other streams:0kB global headers:0kB muxing overhead: 2.343750%


ffmpeg -strict -2 -i /tmp/autopkgtest.sC35DO/autopkgtest_tmp/test/libopencore_amrnb.wav -t 1 -c copy -f wav /tmp/autopkgtest.sC35DO/autopkgtest_tmp/test/libopencore_amrnb.wav.copy.wav -y -hide_banner -nostdin
Input #0, wav, from '/tmp/autopkgtest.sC35DO/autopkgtest_tmp/test/libopencore_amrnb.wav':
  Metadata:
    encoder         : Lavf58.29.100
  Duration: 00:00:00.10, bitrate: 78 kb/s
    Stream #0:0: Audio: amr_nb (8[0][0][0] / 0x0038), 44100 Hz, mono, flt, 128 kb/s
Output #0, wav, to '/tmp/autopkgtest.sC35DO/autopkgtest_tmp/test/libopencore_amrnb.wav.copy.wav':
  Metadata:
    ISFT            : Lavf58.29.100
    Stream #0:0: Audio: amr_nb (8[0][0][0] / 0x0038), 44100 Hz, mono, flt, 128 kb/s
Stream mapping:
  Stream #0:0 -> #0:0 (copy)
size=       1kB time=00:00:00.00 bitrate=N/A speed=   0x    
video:0kB audio:1kB subtitle:0kB other streams:0kB global headers:0kB muxing overhead: 10.267858%

SUCCESS: correctly created file with format 'wav' and codec 'a=amr_nb:libopencore_amrnb'; streamcopying works


Test 21:
trying muxer 'wav' with 'a' encoder 'libvo_amrwbenc' for codec 'amr_wb'

ffmpeg -f lavfi -i sine=d=0.1 -strict -2 -c:a libvo_amrwbenc -f wav /tmp/autopkgtest.sC35DO/autopkgtest_tmp/test/libvo_amrwbenc.wav -y -hide_banner -nostdin
Input #0, lavfi, from 'sine=d=0.1':
  Duration: N/A, start: 0.000000, bitrate: 705 kb/s
    Stream #0:0: Audio: pcm_s16le, 44100 Hz, mono, s16, 705 kb/s
Stream mapping:
  Stream #0:0 -> #0:0 (pcm_s16le (native) -> amr_wb (libvo_amrwbenc))
[libvo_amrwbenc @ 0x2ac7f2dac0] bitrate not supported: use one of 6.60k, 8.85k, 12.65k, 14.25k, 15.85k, 18.25k, 19.85k, 23.05k, 23.85k, using 23.85k
Output #0, wav, to '/tmp/autopkgtest.sC35DO/autopkgtest_tmp/test/libvo_amrwbenc.wav':
  Metadata:
    ISFT            : Lavf58.29.100
    Stream #0:0: Audio: amr_wb (libvo_amrwbenc) (X[0][0][0] / 0x0058), 44100 Hz, mono, s16, 128 kb/s
    Metadata:
      encoder         : Lavc58.54.100 libvo_amrwbenc
[Parsed_sine_0 @ 0x2ac7ee4b60] EOF timestamp not reliable
size=       1kB time=00:00:00.09 bitrate=  75.9kbits/s speed=1.81x    
video:0kB audio:1kB subtitle:0kB other streams:0kB global headers:0kB muxing overhead: 10.772834%


ffmpeg -strict -2 -i /tmp/autopkgtest.sC35DO/autopkgtest_tmp/test/libvo_amrwbenc.wav -t 1 -c:v rawvideo -c:a pcm_s32le -f nut /dev/null -y -hide_banner -nostdin
Input #0, wav, from '/tmp/autopkgtest.sC35DO/autopkgtest_tmp/test/libvo_amrwbenc.wav':
  Metadata:
    encoder         : Lavf58.29.100
  Duration: 00:00:00.10, bitrate: 74 kb/s
    Stream #0:0: Audio: amr_wb (X[0][0][0] / 0x0058), 44100 Hz, mono, flt, 128 kb/s
Stream mapping:
  Stream #0:0 -> #0:0 (amr_wb (amrwb) -> pcm_s32le (native))
[amrwb @ 0x2aba209fd0] Multiple frames in a packet.
Output #0, nut, to '/dev/null':
  Metadata:
    encoder         : Lavf58.29.100
    Stream #0:0: Audio: pcm_s32le (PSD  / 0x20445350), 44100 Hz, mono, s32, 1411 kb/s
    Metadata:
      encoder         : Lavc58.54.100 pcm_s32le
size=      18kB time=00:00:00.10 bitrate=1438.8kbits/s speed=1.57x    
video:0kB audio:18kB subtitle:0kB other streams:0kB global headers:0kB muxing overhead: 1.953125%


ffmpeg -strict -2 -i /tmp/autopkgtest.sC35DO/autopkgtest_tmp/test/libvo_amrwbenc.wav -t 1 -c copy -f wav /tmp/autopkgtest.sC35DO/autopkgtest_tmp/test/libvo_amrwbenc.wav.copy.wav -y -hide_banner -nostdin
Input #0, wav, from '/tmp/autopkgtest.sC35DO/autopkgtest_tmp/test/libvo_amrwbenc.wav':
  Metadata:
    encoder         : Lavf58.29.100
  Duration: 00:00:00.10, bitrate: 74 kb/s
    Stream #0:0: Audio: amr_wb (X[0][0][0] / 0x0058), 44100 Hz, mono, flt, 128 kb/s
Output #0, wav, to '/tmp/autopkgtest.sC35DO/autopkgtest_tmp/test/libvo_amrwbenc.wav.copy.wav':
  Metadata:
    ISFT            : Lavf58.29.100
    Stream #0:0: Audio: amr_wb (X[0][0][0] / 0x0058), 44100 Hz, mono, flt, 128 kb/s
Stream mapping:
  Stream #0:0 -> #0:0 (copy)
size=       1kB time=00:00:00.00 bitrate=N/A speed=   0x    
video:0kB audio:1kB subtitle:0kB other streams:0kB global headers:0kB muxing overhead: 10.772834%

SUCCESS: correctly created file with format 'wav' and codec 'a=amr_wb:libvo_amrwbenc'; streamcopying works


Test 22:
trying muxer 'wtv' with 'a' encoder 'libopencore_amrnb' for codec 'amr_nb'

ffmpeg -f lavfi -i sine=d=0.1 -strict -2 -c:a libopencore_amrnb -f wtv /tmp/autopkgtest.sC35DO/autopkgtest_tmp/test/libopencore_amrnb.wtv -y -hide_banner -nostdin
Input #0, lavfi, from 'sine=d=0.1':
  Duration: N/A, start: 0.000000, bitrate: 705 kb/s
    Stream #0:0: Audio: pcm_s16le, 44100 Hz, mono, s16, 705 kb/s
Stream mapping:
  Stream #0:0 -> #0:0 (pcm_s16le (native) -> amr_nb (libopencore_amrnb))
[libopencore_amrnb @ 0x2b06194d80] bitrate not supported: use one of 4.75k, 5.15k, 5.90k, 6.70k, 7.40k, 7.95k, 10.20k, 12.20k, using 12.20k
Output #0, wtv, to '/tmp/autopkgtest.sC35DO/autopkgtest_tmp/test/libopencore_amrnb.wtv':
  Metadata:
    encoder         : Lavf58.29.100
    Stream #0:0: Audio: amr_nb (libopencore_amrnb) (8[0][0][0] / 0x0038), 44100 Hz, mono, s16, 128 kb/s
    Metadata:
      encoder         : Lavc58.54.100 libopencore_amrnb
[Parsed_sine_0 @ 0x2b0614bb60] EOF timestamp not reliable
size=      36kB time=00:00:00.10 bitrate=2935.8kbits/s speed=2.04x    
video:0kB audio:1kB subtitle:0kB other streams:0kB global headers:0kB muxing overhead: 4014.285645%


ffmpeg -strict -2 -i /tmp/autopkgtest.sC35DO/autopkgtest_tmp/test/libopencore_amrnb.wtv -t 1 -c:v rawvideo -c:a pcm_s32le -f nut /dev/null -y -hide_banner -nostdin
Input #0, wtv, from '/tmp/autopkgtest.sC35DO/autopkgtest_tmp/test/libopencore_amrnb.wtv':
  Metadata:
    encoder         : Lavf58.29.100
  Duration: 00:00:00.10, start: 0.000000, bitrate: 3010 kb/s
    Stream #0:0[0x2]: Audio: amr_nb (8[0][0][0] / 0x0038), 44100 Hz, mono, flt, 128 kb/s
Stream mapping:
  Stream #0:0 -> #0:0 (amr_nb (amrnb) -> pcm_s32le (native))
Output #0, nut, to '/dev/null':
  Metadata:
    encoder         : Lavf58.29.100
    Stream #0:0: Audio: pcm_s32le (PSD  / 0x20445350), 44100 Hz, mono, s32, 1411 kb/s
    Metadata:
      encoder         : Lavc58.54.100 pcm_s32le
size=      18kB time=00:00:00.10 bitrate=1444.3kbits/s speed=2.02x    
video:0kB audio:18kB subtitle:0kB other streams:0kB global headers:0kB muxing overhead: 2.343750%


ffmpeg -strict -2 -i /tmp/autopkgtest.sC35DO/autopkgtest_tmp/test/libopencore_amrnb.wtv -t 1 -c copy -f wtv /tmp/autopkgtest.sC35DO/autopkgtest_tmp/test/libopencore_amrnb.wtv.copy.wtv -y -hide_banner -nostdin
Input #0, wtv, from '/tmp/autopkgtest.sC35DO/autopkgtest_tmp/test/libopencore_amrnb.wtv':
  Metadata:
    encoder         : Lavf58.29.100
  Duration: 00:00:00.10, start: 0.000000, bitrate: 3010 kb/s
    Stream #0:0[0x2]: Audio: amr_nb (8[0][0][0] / 0x0038), 44100 Hz, mono, flt, 128 kb/s
Output #0, wtv, to '/tmp/autopkgtest.sC35DO/autopkgtest_tmp/test/libopencore_amrnb.wtv.copy.wtv':
  Metadata:
    encoder         : Lavf58.29.100
    Stream #0:0: Audio: amr_nb (8[0][0][0] / 0x0038), 44100 Hz, mono, flt, 128 kb/s
Stream mapping:
  Stream #0:0 -> #0:0 (copy)
size=      36kB time=00:00:00.09 bitrate=3010.6kbits/s speed=19.2x    
video:0kB audio:1kB subtitle:0kB other streams:0kB global headers:0kB muxing overhead: 4014.285645%

SUCCESS: correctly created file with format 'wtv' and codec 'a=amr_nb:libopencore_amrnb'; streamcopying works


Test 23:
trying muxer 'wtv' with 'a' encoder 'libvo_amrwbenc' for codec 'amr_wb'

ffmpeg -f lavfi -i sine=d=0.1 -strict -2 -c:a libvo_amrwbenc -f wtv /tmp/autopkgtest.sC35DO/autopkgtest_tmp/test/libvo_amrwbenc.wtv -y -hide_banner -nostdin
Input #0, lavfi, from 'sine=d=0.1':
  Duration: N/A, start: 0.000000, bitrate: 705 kb/s
    Stream #0:0: Audio: pcm_s16le, 44100 Hz, mono, s16, 705 kb/s
Stream mapping:
  Stream #0:0 -> #0:0 (pcm_s16le (native) -> amr_wb (libvo_amrwbenc))
[libvo_amrwbenc @ 0x2b14939d80] bitrate not supported: use one of 6.60k, 8.85k, 12.65k, 14.25k, 15.85k, 18.25k, 19.85k, 23.05k, 23.85k, using 23.85k
Output #0, wtv, to '/tmp/autopkgtest.sC35DO/autopkgtest_tmp/test/libvo_amrwbenc.wtv':
  Metadata:
    encoder         : Lavf58.29.100
    Stream #0:0: Audio: amr_wb (libvo_amrwbenc) (X[0][0][0] / 0x0058), 44100 Hz, mono, s16, 128 kb/s
    Metadata:
      encoder         : Lavc58.54.100 libvo_amrwbenc
[Parsed_sine_0 @ 0x2b148f0b60] EOF timestamp not reliable
size=      28kB time=00:00:00.09 bitrate=2299.0kbits/s speed=2.03x    
video:0kB audio:1kB subtitle:0kB other streams:0kB global headers:0kB muxing overhead: 3257.376953%


ffmpeg -strict -2 -i /tmp/autopkgtest.sC35DO/autopkgtest_tmp/test/libvo_amrwbenc.wtv -t 1 -c:v rawvideo -c:a pcm_s32le -f nut /dev/null -y -hide_banner -nostdin
Input #0, wtv, from '/tmp/autopkgtest.sC35DO/autopkgtest_tmp/test/libvo_amrwbenc.wtv':
  Metadata:
    encoder         : Lavf58.29.100
  Duration: 00:00:00.09, start: 0.000000, bitrate: 2431 kb/s
    Stream #0:0[0x2]: Audio: amr_wb (X[0][0][0] / 0x0058), 44100 Hz, mono, flt, 128 kb/s
Stream mapping:
  Stream #0:0 -> #0:0 (amr_wb (amrwb) -> pcm_s32le (native))
Output #0, nut, to '/dev/null':
  Metadata:
    encoder         : Lavf58.29.100
    Stream #0:0: Audio: pcm_s32le (PSD  / 0x20445350), 44100 Hz, mono, s32, 1411 kb/s
    Metadata:
      encoder         : Lavc58.54.100 pcm_s32le
size=      18kB time=00:00:00.10 bitrate=1438.8kbits/s speed=1.63x    
video:0kB audio:18kB subtitle:0kB other streams:0kB global headers:0kB muxing overhead: 1.953125%


ffmpeg -strict -2 -i /tmp/autopkgtest.sC35DO/autopkgtest_tmp/test/libvo_amrwbenc.wtv -t 1 -c copy -f wtv /tmp/autopkgtest.sC35DO/autopkgtest_tmp/test/libvo_amrwbenc.wtv.copy.wtv -y -hide_banner -nostdin
Input #0, wtv, from '/tmp/autopkgtest.sC35DO/autopkgtest_tmp/test/libvo_amrwbenc.wtv':
  Metadata:
    encoder         : Lavf58.29.100
  Duration: 00:00:00.09, start: 0.000000, bitrate: 2431 kb/s
    Stream #0:0[0x2]: Audio: amr_wb (X[0][0][0] / 0x0058), 44100 Hz, mono, flt, 128 kb/s
Output #0, wtv, to '/tmp/autopkgtest.sC35DO/autopkgtest_tmp/test/libvo_amrwbenc.wtv.copy.wtv':
  Metadata:
    encoder         : Lavf58.29.100
    Stream #0:0: Audio: amr_wb (X[0][0][0] / 0x0058), 44100 Hz, mono, flt, 128 kb/s
Stream mapping:
  Stream #0:0 -> #0:0 (copy)
size=      28kB time=00:00:00.09 bitrate=2431.6kbits/s speed=20.1x    
video:0kB audio:1kB subtitle:0kB other streams:0kB global headers:0kB muxing overhead: 3257.376953%

SUCCESS: correctly created file with format 'wtv' and codec 'a=amr_wb:libvo_amrwbenc'; streamcopying works


done!


success: 23

